# This file uses centimeters as units for non-parametric coordinates.

v -49.999863 7.581707 7.000000
v 50.000000 7.581707 7.000000
v -49.999863 7.581707 -7.000017
v 50.000000 7.581707 -7.000017
v -47.299862 5.581707 -7.000017
v 47.000009 5.581707 -7.000017
v 47.000009 -3.460168 -7.000017
v 50.000000 -3.460168 -7.000017
v 50.000000 -3.460168 7.000000
v -49.999863 -3.460168 -7.000017
v -47.299862 -3.460168 -7.000017
v -49.999863 -3.460168 7.000000
v -47.299862 5.581707 -6.176523
v 47.000009 5.581707 -6.176523
v -47.299862 -3.460168 -6.176523
v 47.000009 -3.460168 -6.176523
v 27.904251 5.581707 -7.000017
v 27.904251 5.581707 -6.176523
v 27.904251 -3.460168 -6.176523
v 23.660751 5.581707 -7.000017
v 23.660751 5.581707 -6.176523
v 23.660751 -3.460168 -6.176523
v -28.204244 5.581707 -7.000017
v -28.204244 5.581707 -6.176523
v -28.204244 -3.460168 -6.176523
v -23.960750 5.581707 -7.000017
v -23.960750 5.581707 -6.176523
v -23.960750 -3.460168 -6.176523
v -2.507500 5.581707 -7.000017
v -2.507500 5.581707 -6.176523
v -2.507500 -3.460168 -6.176523
v 2.207500 5.581707 -7.000017
v 2.207500 5.581707 -6.176523
v 2.207500 -3.460168 -6.176523
v 23.660751 -3.460168 -7.000017
v 27.904251 -3.460168 -7.000017
v -28.204244 -3.460168 -7.000017
v -23.960750 -3.460168 -7.000017
v -2.507500 -3.460168 -7.000017
v 2.207500 -3.460168 -7.000017
v 47.000009 1.060770 -6.176523
v 27.904251 1.060770 -6.176523
v 23.660751 1.060770 -6.176523
v 2.207500 1.060770 -6.176523
v -23.960750 1.060770 -6.176523
v -2.507500 1.060770 -6.176523
v -47.299862 1.060770 -6.176523
v -28.204244 1.060770 -6.176523
v 47.000009 3.321239 -6.929895
v 27.904251 3.321239 -6.929895
v 27.904251 -1.199699 -6.929895
v 47.000009 -1.199699 -6.929895
v 23.660751 3.321239 -6.929895
v 2.207500 3.321239 -6.929895
v 2.207500 -1.199699 -6.929895
v 23.660751 -1.199699 -6.929895
v -2.507500 3.321239 -6.929895
v -23.960750 3.321239 -6.929895
v -23.960750 -1.199699 -6.929895
v -2.507500 -1.199699 -6.929895
v -28.204244 3.321239 -6.929895
v -47.299862 3.321239 -6.929895
v -47.299862 -1.199699 -6.929895
v -28.204244 -1.199699 -6.929895
vt 0.892415 0.820799
vt 0.892414 0.908067
vt 0.871075 0.694346
vt 0.871076 0.622885
vt 0.102081 0.908067
vt 0.979682 0.820799
vt 0.531919 0.375373
vt 0.125791 0.694346
vt 0.892414 0.622885
vt 0.102081 0.820799
vt 0.892415 0.710152
vt 0.449638 0.364832
vt 0.776012 0.243018
vt 0.864567 0.694346
vt 0.646952 0.622765
vt 0.629552 0.622765
vt 0.531919 0.334389
vt 0.736613 0.622765
vt 0.754013 0.622765
vt 0.194950 0.050271
vt 0.540454 0.622765
vt 0.205546 0.364832
vt 0.450793 0.622765
vt 0.517846 0.141463
vt 0.359670 0.622765
vt 0.342270 0.622765
vt 0.792074 0.141463
vt 0.433393 0.622765
vt 0.242646 0.622765
vt 0.225247 0.622765
vt 0.469178 0.050271
vt 0.645471 0.575003
vt 0.557854 0.622765
vt 0.449311 0.575003
vt 0.241165 0.575003
vt 0.102081 0.710152
vt 0.014814 0.820799
vt 0.102081 0.622885
vt 0.125791 0.622885
vt 0.276711 0.694346
vt 0.310249 0.694346
vt 0.479801 0.694346
vt 0.517066 0.694346
vt 0.686618 0.694346
vt 0.720156 0.694346
vt 0.205546 0.375358
vt 0.776012 0.273475
vt 0.531919 0.364846
vt 0.517846 0.171920
vt 0.792074 0.171921
vt 0.194950 0.172100
vt 0.469178 0.172099
vt 0.736613 0.431718
vt 0.540454 0.431718
vt 0.342270 0.431718
vt 0.531919 0.273475
vt 0.194950 0.080728
vt 0.469178 0.080728
vt 0.517846 0.080549
vt 0.792074 0.080549
vt 0.449637 0.303917
vt 0.205546 0.303918
vt 0.531919 0.303932
vt 0.776012 0.303932
vt 0.194950 0.111185
vt 0.469178 0.111185
vt 0.517846 0.111006
vt 0.792074 0.111006
vt 0.449638 0.334375
vt 0.205546 0.334375
vt 0.205546 0.273461
vt 0.449638 0.273460
vt 0.979682 0.710152
vt 0.014813 0.710153
vt 0.449638 0.375358
vt 0.205546 0.243003
vt 0.449638 0.243003
vt 0.132300 0.622885
vt 0.126345 0.640750
vt 0.132299 0.658615
vt 0.126345 0.676480
vt 0.132299 0.694346
vt 0.870521 0.676480
vt 0.864567 0.658615
vt 0.870522 0.640750
vt 0.864568 0.622885
vt 0.776012 0.364846
vt 0.776012 0.375373
vt 0.776012 0.334389
vt 0.792074 0.182447
vt 0.517846 0.182447
vt 0.517846 0.050092
vt 0.792074 0.050092
vt 0.469178 0.182626
vt 0.194950 0.182626
vt 0.194950 0.141642
vt 0.469178 0.141642
vt 0.754013 0.431718
vt 0.738095 0.479480
vt 0.754013 0.527241
vt 0.738095 0.575003
vt 0.646952 0.431718
vt 0.629552 0.527241
vt 0.645470 0.479480
vt 0.629552 0.431718
vt 0.557854 0.431718
vt 0.541936 0.479480
vt 0.557854 0.527241
vt 0.541935 0.575003
vt 0.450792 0.431718
vt 0.433393 0.527241
vt 0.449311 0.479480
vt 0.433392 0.431718
vt 0.359670 0.431718
vt 0.343751 0.479480
vt 0.359670 0.527241
vt 0.343751 0.575003
vt 0.242646 0.431718
vt 0.225246 0.527241
vt 0.241164 0.479480
vt 0.225246 0.431718
vt 0.531919 0.243018
vn 0.000000 1.000000 0.000000
vn 0.000000 1.000000 0.000000
vn 0.000000 1.000000 0.000000
vn 0.000000 1.000000 0.000000
vn -1.000000 0.000000 0.000000
vn -1.000000 0.000000 0.000000
vn -1.000000 0.000000 0.000000
vn -1.000000 0.000000 0.000000
vn 1.000000 0.000000 0.000000
vn 1.000000 0.000000 0.000000
vn 1.000000 0.000000 0.000000
vn 1.000000 0.000000 0.000000
vn 0.000000 0.000000 -1.000000
vn 0.000000 0.000000 -1.000000
vn 0.000000 0.000000 -1.000000
vn 0.000000 0.000000 -1.000000
vn 0.000000 0.000000 -1.000000
vn 0.000000 0.000000 -1.000000
vn 0.000000 0.000000 -1.000000
vn 0.000000 0.000000 -1.000000
vn 0.000000 0.000000 -1.000000
vn 0.000000 0.000000 -1.000000
vn 0.000000 0.000000 -1.000000
vn 0.000000 0.000000 -1.000000
vn 0.000000 0.000000 -1.000000
vn 0.000000 0.000000 -1.000000
vn 0.000000 -1.000000 0.000000
vn 0.000000 -1.000000 0.000000
vn 0.000000 -1.000000 0.000000
vn 0.000000 -1.000000 0.000000
vn 0.000000 -0.000000 -1.000000
vn 0.000000 0.000000 -1.000000
vn 0.000000 -0.316183 -0.948698
vn 0.000000 -0.316183 -0.948698
vn -1.000000 -0.000003 0.000000
vn -1.000000 -0.000000 0.000000
vn -1.000000 -0.000003 0.000000
vn -1.000000 0.000003 0.000000
vn -1.000000 0.000003 0.000000
vn -1.000000 0.000000 0.000000
vn -1.000000 0.000000 0.000000
vn 1.000000 -0.000003 0.000000
vn 1.000000 -0.000000 0.000000
vn 1.000000 -0.000003 0.000000
vn 1.000000 0.000003 0.000000
vn 1.000000 0.000003 0.000000
vn 1.000000 0.000000 0.000000
vn 1.000000 0.000000 0.000000
vn 0.000000 0.000000 1.000000
vn 0.000000 0.000000 1.000000
vn 0.000000 0.000000 1.000000
vn 0.000000 0.000000 1.000000
vn 0.000000 -1.000000 0.000000
vn 0.000000 -1.000000 0.000000
vn 0.000000 -1.000000 0.000000
vn 0.000000 -1.000000 0.000000
vn 0.000000 -0.000000 -1.000000
vn 0.000000 -0.000000 -1.000000
vn 0.000000 0.316183 -0.948698
vn 0.000000 0.316183 -0.948698
vn 0.000000 -1.000000 0.000000
vn 0.000000 -1.000000 0.000000
vn 0.000000 -1.000000 0.000000
vn 0.000000 -1.000000 0.000000
vn 0.000000 -0.316183 -0.948698
vn 0.000000 -0.316183 -0.948698
vn 0.000000 0.000000 -1.000000
vn 0.000000 0.000000 -1.000000
vn 0.000000 -1.000000 0.000000
vn 0.000000 -1.000000 0.000000
vn 0.000000 -1.000000 0.000000
vn 0.000000 -1.000000 0.000000
vn 0.000000 0.000000 -1.000000
vn 0.000000 -0.000000 -1.000000
vn 0.000000 0.316183 -0.948698
vn 0.000000 0.316183 -0.948698
vn -1.000000 0.000001 0.000000
vn -1.000000 0.000001 0.000000
vn -1.000000 0.000000 0.000000
vn -1.000000 0.000000 0.000000
vn -1.000000 0.000000 0.000000
vn -1.000000 0.000000 0.000000
vn -1.000000 0.000000 0.000000
vn 0.000000 0.000000 -1.000000
vn 0.000000 0.000000 -1.000000
vn 1.000000 0.000000 0.000000
vn 1.000000 0.000000 0.000000
vn 1.000000 0.000000 0.000000
vn 1.000000 0.000000 0.000000
vn 1.000000 0.000000 0.000000
vn 1.000000 0.000000 0.000000
vn 1.000000 0.000000 0.000000
vn -1.000000 0.000000 0.000000
vn -1.000000 0.000000 0.000000
vn -1.000000 0.000000 0.000000
vn -1.000000 0.000000 0.000000
vn -1.000000 0.000000 0.000000
vn -1.000000 0.000000 0.000000
vn -1.000000 0.000000 0.000000
vn 0.000000 0.000000 -1.000000
vn 0.000000 0.000000 -1.000000
vn 1.000000 0.000000 0.000000
vn 1.000000 0.000000 0.000000
vn 1.000000 0.000000 0.000000
vn 1.000000 0.000000 0.000000
vn 1.000000 0.000000 0.000000
vn 1.000000 0.000000 0.000000
vn 1.000000 0.000000 0.000000
vn -1.000000 -0.000000 0.000000
vn -1.000000 -0.000000 0.000000
vn -1.000000 -0.000000 0.000000
vn -1.000000 0.000000 0.000000
vn -1.000000 0.000000 0.000000
vn -1.000000 0.000000 0.000000
vn -1.000000 0.000000 0.000000
vn 0.000000 0.000000 -1.000000
vn 0.000000 0.000000 -1.000000
vn 1.000000 -0.000000 0.000000
vn 1.000000 -0.000000 0.000000
vn 1.000000 -0.000000 0.000000
vn 1.000000 0.000000 0.000000
vn 1.000000 0.000000 0.000000
vn 1.000000 0.000000 0.000000
vn 1.000000 0.000000 0.000000
vn 0.000000 -0.316183 -0.948698
vn 0.000000 0.000000 -1.000000
vn 0.000000 -0.316183 -0.948698
vn 0.000000 0.000000 -1.000000
vn 0.000000 -0.316183 -0.948698
vn 0.000000 -0.316183 -0.948698
vn 0.000000 -0.000000 -1.000000
vn 0.000000 -0.000000 -1.000000
vn 0.000000 0.000000 -1.000000
vn 0.000000 0.000000 -1.000000
vn 0.000000 0.316183 -0.948698
vn 0.000000 0.316183 -0.948698
vn 0.000000 0.316183 -0.948698
vn 0.000000 0.316183 -0.948698
vn 0.000000 -0.000000 -1.000000
vn 0.000000 0.000000 -1.000000
vn 0.000000 0.000000 -1.000000
vn 0.000000 0.000000 -1.000000
vn 0.000000 0.000000 -1.000000
vn 0.000000 0.000000 -1.000000
vn 0.000000 -0.000000 -1.000000
vn 0.000000 0.000000 -1.000000
vn 0.000000 0.000000 -1.000000
vn 0.000000 -0.000000 -1.000000
f 1/1/1 2/10/2 3/11/3
f 3/11/3 2/10/2 4/36/4
f 12/6/5 1/1/6 10/73/7
f 10/73/7 1/1/6 3/11/8
f 2/10/9 9/37/10 4/36/11
f 4/36/11 9/37/10 8/74/12
f 11/4/13 10/9/14 5/3/15
f 10/9/14 3/11/16 5/3/15
f 3/11/16 4/36/17 5/3/15
f 5/3/15 4/36/17 23/45/18
f 23/45/18 4/36/17 26/44/19
f 26/44/19 4/36/17 29/43/20
f 29/43/20 4/36/17 32/42/21
f 32/42/21 4/36/17 20/41/22
f 20/41/22 4/36/17 17/40/23
f 17/40/23 4/36/17 6/8/24
f 4/36/17 8/38/25 6/8/24
f 8/38/25 7/39/26 6/8/24
f 23/46/27 24/22/28 5/75/29
f 5/75/29 24/22/28 13/12/30
f 63/72/31 64/71/32 15/77/33
f 15/77/33 64/71/32 25/76/34
f 16/78/35 52/79/36 7/39/37
f 7/39/37 52/79/36 6/8/38
f 14/82/39 6/8/38 49/81/40
f 6/8/38 52/79/36 49/81/40
f 52/79/36 41/80/41 49/81/40
f 13/14/42 62/83/43 5/3/44
f 5/3/44 62/83/43 11/4/45
f 15/86/46 11/4/45 63/85/47
f 11/4/45 62/83/43 63/85/47
f 62/83/43 47/84/48 63/85/47
f 1/1/49 12/2/50 2/10/51
f 2/10/51 12/2/50 9/5/52
f 6/7/53 14/48/54 17/88/55
f 17/88/55 14/48/54 18/87/56
f 49/17/57 50/89/58 14/48/59
f 14/48/59 50/89/58 18/87/60
f 30/49/61 27/50/62 29/91/63
f 29/91/63 27/50/62 26/90/64
f 31/92/65 28/93/66 60/59/67
f 60/59/67 28/93/66 59/60/68
f 21/51/69 33/52/70 20/95/71
f 20/95/71 33/52/70 32/94/72
f 53/96/73 54/97/74 21/51/75
f 21/51/75 54/97/74 33/52/76
f 21/19/77 20/18/78 53/101/79
f 20/18/78 35/53/80 53/101/79
f 22/98/81 56/99/82 35/53/80
f 35/53/80 56/99/82 53/101/79
f 56/99/82 43/100/83 53/101/79
f 20/18/22 17/15/23 35/53/84
f 35/53/84 17/15/23 36/102/85
f 18/16/86 50/32/87 17/15/88
f 17/15/88 50/32/87 36/102/89
f 19/105/90 36/102/89 51/104/91
f 36/102/89 50/32/87 51/104/91
f 50/32/87 42/103/92 51/104/91
f 24/33/93 23/21/94 61/109/95
f 23/21/94 37/54/96 61/109/95
f 25/106/97 64/107/98 37/54/96
f 37/54/96 64/107/98 61/109/95
f 64/107/98 48/108/99 61/109/95
f 23/21/18 26/23/19 37/54/100
f 37/54/100 26/23/19 38/110/101
f 27/28/102 58/34/103 26/23/104
f 26/23/104 58/34/103 38/110/105
f 28/113/106 38/110/105 59/112/107
f 38/110/105 58/34/103 59/112/107
f 58/34/103 45/111/108 59/112/107
f 30/25/109 29/26/110 57/117/111
f 29/26/110 39/55/112 57/117/111
f 31/114/113 60/115/114 39/55/112
f 39/55/112 60/115/114 57/117/111
f 60/115/114 46/116/115 57/117/111
f 29/26/20 32/29/21 39/55/116
f 39/55/116 32/29/21 40/118/117
f 33/30/118 54/35/119 32/29/120
f 32/29/120 54/35/119 40/118/121
f 34/121/122 40/118/121 55/120/123
f 40/118/121 54/35/119 55/120/123
f 54/35/119 44/119/124 55/120/123
f 19/13/125 51/47/126 16/122/127
f 16/122/127 51/47/126 52/56/128
f 22/20/129 34/31/130 56/57/131
f 56/57/131 34/31/130 55/58/132
f 57/24/133 58/27/134 30/49/135
f 30/49/135 58/27/134 27/50/136
f 13/12/137 24/22/138 62/69/139
f 62/69/139 24/22/138 61/70/140
f 41/63/141 42/64/142 49/17/57
f 49/17/57 42/64/142 50/89/58
f 52/56/128 51/47/126 41/63/141
f 41/63/141 51/47/126 42/64/142
f 43/65/143 44/66/144 53/96/73
f 53/96/73 44/66/144 54/97/74
f 56/57/131 55/58/132 43/65/143
f 43/65/143 55/58/132 44/66/144
f 46/67/145 45/68/146 57/24/133
f 57/24/133 45/68/146 58/27/134
f 60/59/67 59/60/68 46/67/145
f 46/67/145 59/60/68 45/68/146
f 62/69/139 61/70/140 47/61/147
f 47/61/147 61/70/140 48/62/148
f 47/61/147 48/62/148 63/72/31
f 63/72/31 48/62/148 64/71/32
