# This file uses centimeters as units for non-parametric coordinates.

v -21.000000 -0.500000 21.000000
v 21.000000 -0.500000 21.000000
v -21.000000 0.500000 21.000000
v 21.000000 0.500000 21.000000
v -21.000000 0.500000 -21.000000
v 21.000000 0.500000 -21.000000
v -21.000000 -0.500000 -21.000000
v 21.000000 -0.500000 -21.000000
vt 0.990383 0.015180
vt 0.006892 0.984820
vt 0.990384 0.984820
vt 0.006892 0.015180
vt 0.983458 0.015180
vt 0.013818 0.015180
vt 0.013818 0.008254
vt 0.983458 0.008254
vt 0.013818 0.984820
vt 0.983458 0.984820
vt 0.983458 0.991746
vt 0.013818 0.991746
vn 0.000000 0.000000 1.000000
vn 0.000000 0.000000 1.000000
vn 0.000000 0.000000 1.000000
vn 0.000000 0.000000 1.000000
vn 0.000000 1.000000 0.000000
vn 0.000000 1.000000 0.000000
vn 0.000000 1.000000 0.000000
vn 0.000000 1.000000 0.000000
vn 0.000000 0.000000 -1.000000
vn 0.000000 0.000000 -1.000000
vn 0.000000 0.000000 -1.000000
vn 0.000000 0.000000 -1.000000
vn 1.000000 0.000000 0.000000
vn 1.000000 0.000000 0.000000
vn 1.000000 0.000000 0.000000
vn 1.000000 0.000000 0.000000
vn -1.000000 0.000000 0.000000
vn -1.000000 0.000000 0.000000
vn -1.000000 0.000000 0.000000
vn -1.000000 0.000000 0.000000
f 1/11/1 2/12/2 3/10/3
f 3/10/3 2/12/2 4/9/4
f 3/10/5 4/9/6 5/5/7
f 5/5/7 4/9/6 6/6/8
f 5/5/9 6/6/10 7/8/11
f 7/8/11 6/6/10 8/7/12
f 2/2/13 8/4/14 4/9/15
f 4/9/15 8/4/14 6/6/16
f 7/1/17 1/3/18 5/5/19
f 5/5/19 1/3/18 3/10/20
v -21.000000 -0.500000 21.000000
v 21.000000 -0.500000 21.000000
v -21.000000 0.500000 21.000000
v 21.000000 0.500000 21.000000
v -21.000000 0.500000 -21.000000
v 21.000000 0.500000 -21.000000
v -21.000000 -0.500000 -21.000000
v 21.000000 -0.500000 -21.000000
vt 0.990383 0.015180
vt 0.006892 0.984820
vt 0.990384 0.984820
vt 0.006892 0.015180
vt 0.983458 0.015180
vt 0.013818 0.015180
vt 0.013818 0.008254
vt 0.983458 0.008254
vt 0.013818 0.984820
vt 0.983458 0.984820
vt 0.983458 0.991746
vt 0.013818 0.991746
vn 0.000000 0.000000 1.000000
vn 0.000000 0.000000 1.000000
vn 0.000000 0.000000 1.000000
vn 0.000000 0.000000 1.000000
vn 0.000000 1.000000 0.000000
vn 0.000000 1.000000 0.000000
vn 0.000000 1.000000 0.000000
vn 0.000000 1.000000 0.000000
vn 0.000000 0.000000 -1.000000
vn 0.000000 0.000000 -1.000000
vn 0.000000 0.000000 -1.000000
vn 0.000000 0.000000 -1.000000
vn 1.000000 0.000000 0.000000
vn 1.000000 0.000000 0.000000
vn 1.000000 0.000000 0.000000
vn 1.000000 0.000000 0.000000
vn -1.000000 0.000000 0.000000
vn -1.000000 0.000000 0.000000
vn -1.000000 0.000000 0.000000
vn -1.000000 0.000000 0.000000
f 9/23/21 10/24/22 11/22/23
f 11/22/23 10/24/22 12/21/24
f 11/22/25 12/21/26 13/17/27
f 13/17/27 12/21/26 14/18/28
f 13/17/29 14/18/30 15/20/31
f 15/20/31 14/18/30 16/19/32
f 10/14/33 16/16/34 12/21/35
f 12/21/35 16/16/34 14/18/36
f 15/13/37 9/15/38 13/17/39
f 13/17/39 9/15/38 11/22/40
