# This file uses centimeters as units for non-parametric coordinates.

v -1.396289 -4.123340 -0.708974
v -0.563191 -4.646316 -0.708974
v -1.220012 -3.841331 -0.712006
v -0.563191 -4.646316 -0.154745
v -1.220012 -3.841331 -0.143187
v -1.396289 -4.123340 -0.154745
v -1.386680 -3.616012 -0.427596
v -0.569358 -4.411264 -0.431860
v -1.611051 -3.988524 -0.431860
v 0.966719 -4.644517 0.215147
v 1.941182 -4.510431 0.215147
v 0.920752 -4.315139 0.203721
v 1.941182 -4.510431 0.769377
v 0.920752 -4.315139 0.772539
v 0.966719 -4.644517 0.769377
v 0.648299 -4.249444 0.488130
v 1.785513 -4.334207 0.492262
v 0.715516 -4.679083 0.492262
v 0.905175 1.041756 -1.667830
v 1.162183 0.366966 -1.947710
v 0.852341 0.321114 -1.897215
v 1.165841 0.316624 -1.858106
v 1.217796 0.748116 -1.759834
v 0.724524 1.023339 -1.842369
v 0.558526 0.852846 -1.759813
v 0.739178 0.871263 -1.585274
v 0.802565 3.287818 -0.299122
v -0.124834 3.377722 -0.330842
v -0.124834 3.377722 0.391514
v 0.802565 3.287818 0.359793
v 0.994244 3.260104 0.030336
v 0.856878 4.517061 -0.382392
v 0.109367 4.621505 -0.382392
v 0.109367 4.621505 0.443063
v 0.856878 4.517061 0.443063
v 1.034236 4.550983 0.030336
v 0.973517 3.874328 -0.525371
v -0.150318 4.031352 -0.525371
v -0.150318 4.031352 0.586043
v 0.973517 3.874328 0.586043
v 1.201484 3.842476 0.030336
v 0.643679 3.270343 0.391514
v 0.643679 3.270343 -0.330842
v 0.205518 2.808783 -1.065500
v -0.357783 2.493641 -0.796852
v -0.021897 1.862762 -0.788473
v 0.666129 2.402607 -0.762126
v 0.348270 1.925774 -1.573469
v -0.011131 1.526692 -1.319932
v 0.294810 1.582603 -1.052041
v 0.659297 1.690596 -1.199908
v 0.477678 -0.406616 -0.514485
v -0.155690 -0.318121 -0.851883
v -0.789057 -0.229625 -0.514485
v -0.789057 -0.229625 0.575019
v 0.477678 -0.406616 0.575019
v 0.675872 2.998596 -0.395603
v -0.190970 3.119712 -0.395521
v -0.190970 3.119712 0.456205
v 0.675872 2.998596 0.456124
v 0.000000 -0.671692 0.030267
v 0.893438 2.569010 -0.751413
v -0.467955 2.697505 -0.797322
v -0.412611 2.838407 0.811946
v 0.305214 2.768787 1.093195
v 0.893438 2.569010 0.811946
v 0.921047 1.729738 -0.676840
v -0.566059 1.937519 -0.676840
v -0.953799 -4.008446 -0.427596
v -0.275882 -2.337335 -0.829268
v -0.651856 -2.101318 -0.427596
v -0.275882 -2.337335 -0.025925
v 0.100092 -2.573352 -0.491642
v 0.117412 4.679083 0.030336
v -0.579908 0.656478 1.714496
v -1.009561 0.055862 1.947710
v -1.215303 0.295245 1.915779
v -0.926046 0.838634 1.820897
v -0.692985 0.784515 1.899586
v -1.049919 0.032749 1.855985
v -0.812968 0.710598 1.635807
v -0.658527 0.228919 1.773082
v -0.274421 1.793089 1.731807
v -0.745066 1.772924 1.527805
v -0.335481 2.643765 0.822984
v -0.512315 1.550706 1.241770
v -0.027547 1.670146 0.876226
v -0.117701 1.456269 1.415175
v 0.684381 2.358701 0.832875
v 0.921047 1.729738 0.737304
v -0.566059 1.937519 0.737304
v -0.155690 -0.318121 0.912417
v 0.678685 -2.555938 0.889802
v 0.238913 -2.616451 0.488130
v 0.678684 -2.555938 0.086458
v 1.118456 -2.495425 0.552175
v 1.232138 -4.272292 0.488130
vt 0.897466 0.762972
vt 0.921380 0.737713
vt 0.896535 0.853809
vt 0.738628 0.759928
vt 0.763625 0.738449
vt 0.739808 0.848741
vt 0.273356 0.940518
vt 0.228265 0.910031
vt 0.332302 0.902684
vt 0.241693 0.849651
vt 0.099841 0.940514
vt 0.040899 0.902678
vt 0.144935 0.910030
vt 0.131511 0.849649
vt 0.393233 0.886125
vt 0.386437 0.990113
vt 0.428417 0.942949
vt 0.366658 0.124945
vt 0.381127 0.248432
vt 0.323956 0.129718
vt 0.323960 0.261134
vt 0.408862 0.116894
vt 0.426321 0.192617
vt 0.243878 0.116195
vt 0.283224 0.127060
vt 0.226784 0.192008
vt 0.266681 0.251293
vt 0.356545 0.035270
vt 0.320342 0.039788
vt 0.388662 0.028936
vt 0.273686 0.031018
vt 0.294650 0.037963
vt 0.259900 0.551627
vt 0.336529 0.541437
vt 0.271606 0.627967
vt 0.343972 0.628774
vt 0.492838 0.682905
vt 0.484135 0.759238
vt 0.421605 0.673728
vt 0.411366 0.760852
vt 0.354501 0.843573
vt 0.292540 0.807303
vt 0.369616 0.823210
vt 0.299728 0.782298
vt 0.411036 0.868064
vt 0.452521 0.935065
vt 0.018703 0.843566
vt 0.003589 0.823202
vt 0.080665 0.807299
vt 0.073481 0.782296
vt 0.149362 0.743935
vt 0.228164 0.744625
vt 0.149894 0.769260
vt 0.227174 0.769936
vt 0.597323 0.798975
vt 0.518519 0.798994
vt 0.632659 0.759228
vt 0.315858 0.344346
vt 0.249305 0.349496
vt 0.441175 0.476525
vt 0.507821 0.481344
vt 0.896502 0.015105
vt 0.940813 0.173671
vt 0.862361 0.032442
vt 0.886955 0.186223
vt 0.777862 0.029778
vt 0.819620 0.027025
vt 0.780890 0.194569
vt 0.832112 0.191117
vt 0.116683 0.260788
vt 0.059514 0.248088
vt 0.116689 0.129377
vt 0.073984 0.124600
vt 0.014322 0.192272
vt 0.031783 0.116550
vt 0.196765 0.115850
vt 0.213861 0.191663
vt 0.157422 0.126718
vt 0.173966 0.250950
vt 0.120306 0.039447
vt 0.084101 0.034926
vt 0.051977 0.028591
vt 0.166950 0.030676
vt 0.145989 0.037622
vt 0.129112 0.548769
vt 0.113576 0.624499
vt 0.052982 0.535239
vt 0.040937 0.622056
vt 0.704466 0.761196
vt 0.694896 0.673693
vt 0.623655 0.682888
vt 0.152476 0.669948
vt 0.231262 0.671670
vt 0.148524 0.347293
vt 0.082258 0.339241
vt 0.675270 0.476496
vt 0.608626 0.481331
vt 0.496366 0.183629
vt 0.442508 0.171076
vt 0.520964 0.029849
vt 0.486825 0.012512
vt 0.642300 0.024263
vt 0.661711 0.187764
vt 0.605457 0.027184
vt 0.602431 0.191976
vt 0.792441 0.849086
vt 0.949353 0.853335
vt 0.948949 0.758908
vt 0.721610 0.190358
vt 0.741020 0.026857
vt 0.602393 0.392858
vt 0.677609 0.357089
vt 0.780928 0.395451
vt 0.705711 0.359683
vt 0.847476 0.390533
vt 0.913755 0.385425
vt 0.982641 0.338542
vt 0.469566 0.382831
vt 0.400680 0.335948
vt 0.535845 0.387939
vt 0.551209 0.188523
vt 0.200365 0.282032
vt 0.558214 0.414960
vt 0.922696 0.870578
vt 0.766682 0.866279
vt 0.923746 0.922017
vt 0.950444 0.949436
vt 0.766764 0.922299
vt 0.739705 0.951197
vt 0.792367 0.950094
vt 0.896374 0.949980
vt 0.979267 0.938073
vt 0.992092 0.970373
vt 0.955041 0.986067
vt 0.710781 0.942722
vt 0.701013 0.976073
vt 0.739401 0.988130
vt 0.867245 0.939998
vt 0.855186 0.972594
vt 0.892850 0.986754
vt 0.823483 0.940185
vt 0.835455 0.972812
vt 0.797757 0.986878
vt 0.791907 0.758685
vt 0.186597 0.947076
vt 0.186599 0.909292
vt 0.089485 0.970026
vt 0.283712 0.970031
vt 0.186596 0.841950
vt 0.145335 0.788223
vt 0.186940 0.786371
vt 0.230787 0.789698
vt 0.712673 0.837924
vt 0.636288 0.810698
vt 0.479148 0.810726
vt 0.402631 0.837490
vt 0.096933 0.678082
vt 0.285207 0.682266
vt 0.563701 0.024431
vt 0.763229 0.567354
vt 0.790622 0.595764
vt 0.763235 0.640948
vt 0.785319 0.635648
vt 0.948008 0.566336
vt 0.948003 0.639930
vt 0.920616 0.594746
vt 0.925919 0.634629
vt 0.970803 0.636559
vt 0.974281 0.579159
vt 0.736957 0.580179
vt 0.740436 0.637578
vt 0.757679 0.559638
vt 0.769625 0.560380
vt 0.807506 0.641093
vt 0.825406 0.574180
vt 0.828193 0.649672
vt 0.845004 0.594926
vt 0.953557 0.558620
vt 0.941611 0.559361
vt 0.903731 0.640074
vt 0.885833 0.573160
vt 0.866235 0.593905
vt 0.883043 0.648652
vn -0.531672 -0.846951 -0.000000
vn -0.531672 -0.846951 -0.000000
vn -0.531672 -0.846951 -0.000000
vn 0.136316 -0.990665 -0.000000
vn 0.136316 -0.990665 -0.000000
vn 0.136316 -0.990665 -0.000000
vn 0.031076 0.222412 -0.974457
vn 0.031076 0.222412 -0.974457
vn 0.031076 0.222412 -0.974457
vn 0.031076 0.222412 -0.974458
vn 0.031076 0.222411 0.974458
vn 0.031076 0.222413 0.974457
vn 0.031076 0.222413 0.974457
vn 0.031076 0.222414 0.974457
vn -0.999241 -0.038958 0.000000
vn -0.999241 -0.038958 0.000000
vn -0.999241 -0.038958 0.000000
vn -0.999241 -0.038958 0.000000
vn -0.631985 0.085748 -0.770223
vn -0.596214 0.285089 -0.750502
vn -0.619189 0.138801 -0.772877
vn -0.554470 0.345814 -0.756952
vn -0.359430 -0.747880 0.558109
vn -0.793789 -0.521175 0.313489
vn -0.491795 -0.696830 0.522078
vn -0.852029 -0.450078 0.267351
vn 0.454176 -0.340735 0.823179
vn 0.400452 -0.444584 0.801239
vn 0.363693 -0.475393 0.801080
vn 0.355612 -0.492006 0.794651
vn 0.805930 0.386003 -0.448863
vn 0.789410 0.397613 -0.467691
vn 0.751720 0.396089 -0.527286
vn 0.728791 0.426147 -0.535968
vn -0.527117 0.104883 -0.843295
vn -0.554693 0.051271 -0.830474
vn -0.459206 -0.698390 0.548982
vn -0.434058 -0.703115 0.563225
vn 0.597822 -0.207067 0.774423
vn 0.558381 -0.264924 0.786146
vn 0.510476 0.621791 -0.593961
vn 0.688450 0.536852 -0.487674
vn 0.104021 -0.093586 -0.990162
vn 0.174939 -0.117888 -0.977496
vn 0.205183 -0.215833 -0.954629
vn 0.293157 -0.332918 -0.896228
vn -0.209825 -0.071163 -0.975146
vn -0.307074 -0.174008 -0.935643
vn -0.274940 -0.067346 -0.959100
vn -0.336089 -0.189374 -0.922595
vn 0.032849 0.235099 -0.971416
vn 0.032804 0.235326 -0.971363
vn 0.032836 0.235165 -0.971401
vn 0.032795 0.235370 -0.971353
vn -0.968682 0.248304 0.000000
vn -0.968682 0.248304 0.000000
vn -0.968682 0.248304 0.000000
vn -0.968682 0.248304 0.000000
vn 0.032855 0.235142 0.971406
vn 0.032868 0.235076 0.971421
vn 0.032899 0.234917 0.971458
vn 0.032908 0.234874 0.971469
vn 0.993056 0.117645 0.000000
vn 0.993056 0.117645 0.000000
vn 0.993056 0.117645 0.000000
vn 0.993056 0.117645 0.000000
vn -0.785483 0.618883 0.000000
vn -0.824551 0.565447 -0.019620
vn -0.812876 0.582280 -0.013556
vn -0.826760 0.562171 -0.020789
vn 0.469811 -0.003155 -0.882761
vn 0.359557 -0.033434 -0.932524
vn -0.463563 0.054153 -0.884408
vn -0.432663 0.040699 -0.900637
vn -0.653502 0.358248 0.666778
vn -0.611111 0.300895 0.732123
vn -0.642449 0.342802 0.685380
vn -0.605628 0.293809 0.739521
vn 0.526499 -0.419643 -0.739391
vn 0.516873 -0.407260 -0.752982
vn 0.489360 -0.372432 -0.788556
vn 0.484105 -0.365868 -0.794848
vn -0.398347 0.656147 0.640930
vn -0.383694 0.661195 0.644670
vn -0.370037 0.556741 0.743715
vn -0.354083 0.514988 0.780649
vn -0.670286 -0.250201 -0.698653
vn -0.672330 -0.227145 -0.704541
vn -0.720845 -0.145854 -0.677576
vn -0.736043 0.103496 -0.668976
vn 0.163160 -0.651743 -0.740683
vn 0.594587 -0.776478 -0.208680
vn 0.347523 -0.725079 -0.594548
vn 0.679804 -0.713549 -0.169453
vn 0.748813 -0.234154 0.620041
vn 0.670003 0.042170 0.741160
vn 0.735515 -0.164585 0.657213
vn 0.642993 0.113734 0.757380
vn -0.305488 0.321086 0.896427
vn -0.231717 0.331758 0.914464
vn -0.822151 0.014861 -0.569075
vn -0.838283 0.045145 -0.543363
vn 0.182344 -0.470258 -0.863486
vn 0.211475 -0.469232 -0.857379
vn 0.762149 -0.211453 0.611896
vn 0.762949 -0.213326 0.610247
vn 0.150250 -0.098407 0.983738
vn 0.257329 -0.195995 0.946239
vn 0.207269 -0.110992 0.971967
vn 0.335353 -0.279264 0.899750
vn -0.369843 -0.070930 0.926383
vn -0.348107 -0.063275 0.935317
vn -0.314429 -0.034560 0.948652
vn -0.268389 -0.040486 0.962459
vn -0.991058 0.131510 0.022569
vn -0.993287 0.115573 0.004892
vn -0.987691 0.156247 0.007253
vn -0.992258 0.124191 0.000000
vn 0.999459 0.032878 0.000000
vn 0.991534 -0.129849 0.000000
vn 0.999459 0.032878 0.000000
vn 0.991538 -0.129818 0.000000
vn 0.892112 0.451815 0.000000
vn 0.892112 0.451815 0.000000
vn 0.892112 0.451815 0.000000
vn 0.892112 0.451815 0.000000
vn 0.362366 -0.046854 0.930857
vn 0.468572 -0.014121 0.883312
vn -0.464639 0.046042 0.884302
vn -0.434179 0.031298 0.900283
vn -0.994748 0.102359 0.000000
vn -0.994748 0.102359 0.000000
vn 0.979136 -0.203206 0.000000
vn 0.979136 -0.203206 0.000000
vn -0.652929 -0.163687 -0.739521
vn -0.661683 -0.161775 -0.732123
vn -0.712617 -0.149774 -0.685379
vn -0.731009 -0.145032 -0.666777
vn 0.670553 0.042901 -0.740620
vn 0.715533 0.068021 -0.695259
vn 0.685659 0.051165 -0.726122
vn 0.720618 0.070964 -0.689692
vn 0.136316 -0.990665 0.000000
vn -0.531672 -0.846951 0.000000
vn -0.531672 -0.846951 0.000000
vn 0.597973 -0.408354 0.689692
vn 0.592186 -0.407345 0.695259
vn 0.558462 -0.401082 0.726122
vn 0.541575 -0.397717 0.740620
vn 0.679561 0.216134 -0.701058
vn 0.688886 0.225314 -0.688963
vn 0.681425 0.217958 -0.698680
vn 0.692696 0.229107 -0.683873
vn 0.775827 -0.128687 0.617683
vn 0.771099 -0.130453 0.623208
vn 0.748449 -0.138599 0.648548
vn 0.733101 -0.143849 0.664734
vn 0.458542 -0.089229 -0.884182
vn 0.588874 -0.061934 -0.805848
vn 0.479675 -0.085096 -0.873310
vn 0.650824 -0.047227 -0.757758
vn -0.477020 -0.075616 -0.875634
vn -0.518979 -0.058504 -0.852782
vn -0.672364 0.010976 -0.740140
vn -0.719271 0.035043 -0.693845
vn -0.569495 -0.003587 0.821987
vn -0.648510 0.052487 0.759395
vn -0.586322 0.007911 0.810040
vn -0.699459 0.091942 0.708734
vn -0.640965 -0.249631 -0.725843
vn -0.640375 -0.249677 -0.726348
vn -0.636155 -0.250003 -0.729935
vn -0.633962 -0.250169 -0.731784
vn -0.482338 -0.238421 0.842915
vn -0.609016 -0.243891 0.754730
vn -0.499664 -0.239466 0.832462
vn -0.635419 -0.244320 0.732496
vn 0.485222 -0.874391 0.000000
vn 0.485223 -0.874391 0.000000
vn 0.485223 -0.874391 0.000000
vn -0.488767 -0.872414 0.000000
vn -0.488767 -0.872414 0.000000
vn -0.488767 -0.872414 0.000000
vn 0.999656 0.026227 0.000000
vn 0.999656 0.026227 0.000000
vn 0.999656 0.026227 0.000000
vn 0.749464 0.662046 0.000000
vn 0.749464 0.662046 0.000000
vn 0.749464 0.662046 0.000000
vn 0.723405 0.690422 -0.001830
vn 0.682295 0.601264 -0.415877
vn 0.771371 0.636385 0.001091
vn 0.730813 0.595042 -0.334420
vn 0.111178 0.993799 0.001773
vn 0.182647 0.983178 -0.001057
vn 0.136986 0.899040 0.415887
vn 0.178145 0.925420 0.334459
vn 0.141273 0.898088 -0.416510
vn 0.180616 0.924034 -0.336956
vn 0.685056 0.597670 0.416519
vn 0.731850 0.592309 0.336996
vn -0.628846 0.385817 -0.675053
vn -0.628838 0.386226 -0.674827
vn -0.628838 0.386221 -0.674830
vn -0.628833 0.386480 -0.674687
vn -0.729775 -0.108328 0.675050
vn -0.730055 -0.107980 0.674803
vn -0.730059 -0.107976 0.674800
vn -0.730235 -0.107757 0.674645
vn -0.637869 0.371057 0.674863
vn -0.637807 0.374350 0.673101
vn -0.637806 0.374390 0.673079
vn -0.637763 0.376446 0.671972
vn -0.727291 -0.124911 -0.674867
vn -0.729355 -0.122351 -0.673106
vn -0.729330 -0.122382 -0.673127
vn -0.730625 -0.120769 -0.672014
vn 0.136316 -0.990665 0.000000
vn 0.004681 -0.034017 -0.999410
vn 0.004681 -0.034017 -0.999410
vn 0.004681 -0.034017 -0.999410
vn -0.018466 -0.029416 0.999397
vn -0.018466 -0.029416 0.999397
vn -0.018466 -0.029416 0.999397
vn -0.004846 -0.007721 -0.999959
vn -0.004846 -0.007721 -0.999959
vn -0.004846 -0.007721 -0.999959
vn 0.001297 -0.009421 0.999955
vn 0.001297 -0.009421 0.999955
vn 0.001297 -0.009421 0.999955
vn 0.137026 0.980697 -0.139487
vn 0.137026 0.980698 -0.139485
vn 0.137025 0.980698 -0.139483
vn 0.137025 0.980698 -0.139482
vn 0.137025 0.980698 0.139483
vn 0.137026 0.980698 0.139484
vn 0.137025 0.980698 0.139483
vn 0.137026 0.980698 0.139484
vn -0.920845 0.389929 -0.000000
vn -0.922433 0.386116 0.005645
vn -0.911027 0.410449 0.039502
vn -0.911027 0.410449 -0.039502
vn -0.922433 0.386116 -0.005645
vn 0.891779 0.210511 0.400520
vn 0.897197 0.226291 0.379249
vn 0.899042 0.232109 0.371281
vn 0.902263 0.242977 0.356206
vn 0.891779 0.210511 -0.400520
vn 0.899042 0.232109 -0.371281
vn 0.897197 0.226292 -0.379250
vn 0.902263 0.242977 -0.356206
vn -0.033927 -0.289558 0.956559
vn -0.020112 -0.296539 0.954809
vn 0.221662 -0.406521 0.886345
vn -0.040024 -0.286453 -0.957258
vn -0.040024 -0.286453 -0.957258
vn -0.020112 -0.296539 -0.954809
vn -0.033927 -0.289558 -0.956559
vn 0.816265 -0.290473 0.499337
vn 0.839588 -0.364717 0.402583
vn 0.835873 -0.349993 0.422874
vn 0.844519 -0.388386 0.368707
vn 0.844519 -0.388386 -0.368706
vn 0.839588 -0.364717 -0.402583
vn 0.835872 -0.349993 -0.422874
vn 0.816264 -0.290472 -0.499339
vn -0.029194 -0.999574 0.000000
vn -0.029194 -0.999574 0.000000
vn -0.029194 -0.999574 0.000000
vn 0.140073 -0.976526 -0.163638
vn 0.140073 -0.976526 -0.163638
vn 0.140073 -0.976526 -0.163638
vn 0.140073 -0.976526 0.163638
vn 0.140073 -0.976526 0.163638
vn 0.140073 -0.976526 0.163638
vn 0.266314 0.846815 0.460414
vn 0.012973 0.880042 0.474719
vn 0.177798 0.858533 0.480947
vn 0.129417 0.926484 -0.353382
vn 0.295331 0.844555 -0.446662
vn 0.253249 0.869452 -0.424169
vn 0.489385 0.689795 0.533559
vn 0.485530 0.690250 -0.536484
vn -0.346167 0.755910 -0.555670
vn -0.346167 0.755910 -0.555670
vn -0.346167 0.755910 -0.555670
vn -0.139807 0.817218 0.559115
vn 0.221662 -0.406521 -0.886344
vn -0.040024 -0.286453 0.957258
vn -0.040024 -0.286453 0.957258
vn 0.606046 0.030410 0.794848
vn 0.657746 0.019724 0.752982
vn 0.614290 0.028753 0.788556
vn 0.673076 0.016412 0.739391
vn 0.577611 0.207385 0.789530
vn 0.558947 0.193694 0.806263
vn 0.498309 0.150333 0.853867
vn 0.480607 0.137964 0.866015
vn -0.605629 0.293809 -0.739520
vn -0.611112 0.300896 -0.732123
vn -0.642450 0.342803 -0.685379
vn -0.653503 0.358248 -0.666777
vn -0.731010 -0.145032 0.666776
vn -0.661683 -0.161775 0.732123
vn -0.712618 -0.149774 0.685378
vn -0.652929 -0.163687 0.739520
vn 0.502445 -0.162207 0.849257
vn 0.537750 -0.155330 0.828672
vn 0.646894 -0.130934 0.751255
vn 0.826771 -0.075646 0.557429
vn 0.351400 0.372179 -0.859070
vn 0.409530 0.506425 -0.758828
vn 0.366030 0.404723 -0.837987
vn 0.472915 0.679307 -0.561154
vn -0.437517 -0.009408 -0.899161
vn -0.340540 0.011446 -0.940160
vn -0.203129 0.039440 -0.978357
vn -0.167366 0.046453 -0.984800
vn -0.051773 0.088192 0.994757
vn -0.174654 0.218227 0.960142
vn -0.076969 0.114944 0.990386
vn -0.244510 0.291629 0.924753
vn -0.706450 -0.547314 0.448749
vn -0.706450 -0.547314 0.448749
vn -0.706450 -0.547314 0.448749
vn 0.452270 -0.891512 0.025655
vn 0.452270 -0.891512 0.025655
vn 0.452270 -0.891512 0.025655
vn 0.276831 -0.180235 -0.943865
vn -0.016986 -0.279073 -0.960120
vn 0.088961 -0.246509 -0.965049
vn -0.056764 -0.290429 -0.955212
vn -0.724053 0.274977 -0.632562
vn -0.671670 0.163567 -0.722568
vn -0.533670 -0.052023 -0.844091
vn -0.488319 -0.110479 -0.865644
vn 0.048761 -0.869934 -0.490751
vn 0.048761 -0.869934 -0.490751
vn 0.048761 -0.869934 -0.490751
vn 0.990657 -0.097587 -0.095262
vn 0.990657 -0.097587 -0.095262
vn 0.990657 -0.097587 -0.095262
vn 0.362711 0.095713 0.926974
vn 0.318372 -0.099015 0.942781
vn 0.288221 -0.205520 0.935249
vn 0.275968 -0.244909 0.929441
vn -0.113807 -0.507646 0.854016
vn -0.452173 -0.508504 0.732778
vn -0.188761 -0.513467 0.837091
vn -0.579870 -0.488833 0.651761
f 6/1/1 9/2/2 4/3/3
f 15/4/4 18/5/5 13/6/6
f 33/7/7 32/8/8 38/9/9
f 38/9/9 32/8/8 37/10/10
f 34/11/11 39/12/12 35/13/13
f 35/13/13 39/12/12 40/14/14
f 38/9/15 28/15/16 39/16/17
f 39/16/17 28/15/16 29/17/18
f 49/18/19 45/19/20 48/20/21
f 48/20/21 45/19/20 44/21/22
f 50/22/23 46/23/24 49/18/25
f 49/18/25 46/23/24 45/19/26
f 50/24/27 51/25/28 46/26/29
f 46/26/29 51/25/28 47/27/30
f 51/25/31 48/20/32 47/27/33
f 47/27/33 48/20/32 44/21/34
f 25/28/35 49/18/19 24/29/36
f 24/29/36 49/18/19 48/20/21
f 26/30/37 50/22/23 25/28/38
f 25/28/38 50/22/23 49/18/25
f 26/31/39 19/32/40 50/24/27
f 50/24/27 19/32/40 51/25/28
f 19/32/41 24/29/42 51/25/31
f 51/25/31 24/29/42 48/20/32
f 67/33/43 46/34/44 62/35/45
f 62/35/45 46/34/44 44/36/46
f 68/37/47 63/38/48 46/39/49
f 46/39/49 63/38/48 44/40/50
f 28/41/51 43/42/52 58/43/53
f 58/43/53 43/42/52 57/44/54
f 58/45/55 59/46/56 28/15/57
f 28/15/57 59/46/56 29/17/58
f 29/47/59 59/48/60 42/49/61
f 42/49/61 59/48/60 60/50/62
f 60/51/63 57/52/64 42/53/65
f 42/53/65 57/52/64 43/54/66
f 59/55/67 58/56/68 64/57/69
f 64/57/69 58/56/68 63/38/70
f 53/58/71 46/34/44 52/59/72
f 52/59/72 46/34/44 67/33/43
f 53/60/73 54/61/74 46/39/49
f 46/39/49 54/61/74 68/37/47
f 5/62/75 72/63/76 7/64/77
f 7/64/77 72/63/76 71/65/78
f 69/66/79 3/67/80 73/68/81
f 73/68/81 3/67/80 70/69/82
f 65/70/83 85/71/84 83/72/85
f 83/72/85 85/71/84 84/73/86
f 85/71/87 87/74/88 84/73/89
f 84/73/89 87/74/88 86/75/90
f 86/76/91 87/77/92 88/78/93
f 88/78/93 87/77/92 89/79/94
f 88/78/95 89/79/96 83/72/97
f 83/72/97 89/79/96 65/70/98
f 83/72/85 84/73/86 79/80/99
f 79/80/99 84/73/86 78/81/100
f 84/73/89 86/75/90 78/81/101
f 78/81/101 86/75/90 81/82/102
f 81/83/103 86/76/91 75/84/104
f 75/84/104 86/76/91 88/78/93
f 75/84/105 88/78/95 79/80/106
f 79/80/106 88/78/95 83/72/97
f 90/85/107 66/86/108 87/87/109
f 87/87/109 66/86/108 65/88/110
f 65/89/111 64/57/112 87/90/113
f 87/90/113 64/57/112 91/91/114
f 63/38/115 68/37/116 64/57/117
f 64/57/117 68/37/116 91/91/118
f 66/86/119 90/85/120 62/35/121
f 62/35/121 90/85/120 67/33/122
f 60/92/123 66/86/124 57/93/125
f 57/93/125 66/86/124 62/35/126
f 90/85/107 87/87/109 56/94/127
f 56/94/127 87/87/109 92/95/128
f 92/96/129 87/90/113 55/97/130
f 55/97/130 87/90/113 91/91/114
f 68/37/116 54/61/131 91/91/118
f 91/91/118 54/61/131 55/97/132
f 90/85/120 56/94/133 67/33/122
f 67/33/122 56/94/133 52/59/134
f 94/98/135 95/99/136 16/100/137
f 16/100/137 95/99/136 12/101/138
f 12/102/139 95/103/140 97/104/141
f 97/104/141 95/103/140 96/105/142
f 18/5/5 11/106/143 13/6/6
f 4/3/3 9/2/2 2/107/144
f 2/107/144 9/2/2 1/108/145
f 73/68/146 72/109/147 69/66/148
f 69/66/148 72/109/147 5/110/149
f 56/111/150 96/105/151 61/112/152
f 61/112/152 96/105/151 95/103/153
f 52/113/154 61/114/155 73/68/156
f 73/68/156 61/114/155 72/109/157
f 52/113/158 73/68/159 53/115/160
f 53/115/160 73/68/159 70/69/161
f 54/116/162 53/115/163 71/65/164
f 71/65/164 53/115/163 70/69/165
f 54/116/166 71/65/167 61/117/168
f 61/117/168 71/65/167 72/63/169
f 55/118/170 61/119/171 94/98/172
f 94/98/172 61/119/171 95/99/173
f 55/118/174 94/98/175 92/120/176
f 92/120/176 94/98/175 93/121/177
f 52/59/178 56/94/179 61/122/180
f 55/97/181 54/61/182 61/123/183
f 4/3/184 2/107/185 8/124/186
f 13/6/187 11/106/188 17/125/189
f 8/124/190 2/107/191 69/126/192
f 69/126/192 2/107/191 3/127/193
f 17/125/194 97/128/195 13/6/196
f 13/6/196 97/128/195 14/129/197
f 17/125/194 11/106/198 97/128/195
f 97/128/195 11/106/198 12/130/199
f 8/124/190 69/126/192 4/3/200
f 4/3/200 69/126/192 5/131/201
f 1/132/202 9/133/203 3/127/204
f 3/127/204 9/133/203 7/134/205
f 15/135/206 14/129/207 18/136/208
f 18/136/208 14/129/207 16/137/209
f 6/138/210 5/131/211 9/139/212
f 9/139/212 5/131/211 7/140/213
f 10/141/214 18/142/215 12/130/216
f 12/130/216 18/142/215 16/143/217
f 10/144/218 11/106/143 18/5/5
f 11/106/219 10/141/220 12/130/221
f 6/138/222 4/3/223 5/131/224
f 2/107/225 1/132/226 3/127/227
f 13/6/228 14/129/229 15/135/230
f 33/7/231 74/145/232 32/8/233
f 32/8/233 74/145/232 36/146/234
f 36/146/235 74/145/236 35/13/237
f 35/13/237 74/145/236 34/11/238
f 74/147/239 39/12/240 34/11/241
f 74/148/239 33/7/242 38/9/243
f 74/148/239 38/9/243 39/16/240
f 36/146/244 35/13/245 41/149/246
f 41/149/246 35/13/245 40/14/247
f 36/146/248 41/149/249 32/8/250
f 32/8/250 41/149/249 37/10/251
f 40/14/252 42/53/253 30/150/254
f 28/41/255 38/9/256 43/42/257
f 43/42/257 38/9/256 37/10/258
f 31/151/259 41/149/260 30/150/261
f 30/150/261 41/149/260 40/14/262
f 37/10/263 41/149/264 27/152/265
f 27/152/265 41/149/264 31/151/266
f 43/54/267 31/151/268 42/53/269
f 43/54/270 27/152/271 31/151/272
f 31/151/273 30/150/274 42/53/275
f 60/153/276 59/154/277 65/89/278
f 58/155/279 57/156/280 44/40/281
f 60/157/276 65/88/278 66/86/282
f 44/36/281 57/158/280 62/35/283
f 58/155/284 44/40/285 63/38/286
f 65/89/278 59/154/277 64/57/287
f 43/54/257 37/10/258 27/152/288
f 29/47/289 42/49/253 39/12/290
f 39/12/290 42/49/253 40/14/252
f 93/121/291 14/159/292 96/105/293
f 96/105/293 14/159/292 97/104/294
f 93/121/295 96/105/296 92/120/297
f 92/120/297 96/105/296 56/111/298
f 71/65/299 70/69/300 7/64/301
f 7/64/301 70/69/300 3/67/302
f 14/159/303 93/121/304 16/100/305
f 16/100/305 93/121/304 94/98/306
f 76/160/307 82/161/308 79/162/309
f 79/162/309 82/161/308 75/163/310
f 20/164/311 24/165/312 23/166/313
f 23/166/313 24/165/312 19/167/314
f 25/168/315 24/165/316 21/169/317
f 21/169/317 24/165/316 20/164/318
f 76/160/319 79/162/320 77/170/321
f 77/170/321 79/162/320 78/171/322
f 77/170/323 80/172/324 76/160/325
f 82/161/326 76/160/327 80/173/328
f 75/163/329 82/161/330 81/174/331
f 81/174/331 82/161/330 80/175/332
f 78/176/333 81/174/334 77/177/335
f 77/177/335 81/174/334 80/175/336
f 21/169/337 20/164/338 22/178/339
f 23/166/340 22/179/341 20/164/342
f 19/167/343 26/180/344 23/166/345
f 23/166/345 26/180/344 22/181/346
f 22/181/347 26/180/348 21/182/349
f 21/182/349 26/180/348 25/183/350
