# This file uses centimeters as units for non-parametric coordinates.

v -0.000000 20.000000 110.000000
v 0.000000 -20.000000 110.000000
v -0.000000 20.000000 -110.000000
v 0.000000 -20.000000 -110.000000
v 0.000000 0.000000 110.000000
v 0.000000 0.000000 -110.000000
v -0.000000 10.000000 110.000000
v -0.000000 10.000000 -110.000000
v 0.000000 -10.000000 110.000000
v 0.000000 -10.000000 -110.000000
v -0.000000 20.000000 0.000000
v -0.000000 20.000000 -22.000005
v -0.000000 20.000000 -43.999997
v -0.000000 20.000000 -66.000003
v -0.000000 20.000000 -87.999995
v 8.138582 7.377673 0.000000
v -6.179050 4.851120 -22.000005
v 5.008565 11.187546 -43.999997
v -3.012180 6.534133 -66.000003
v 8.138582 6.930678 -87.999995
v 8.138582 1.499159 0.000000
v 8.813627 -4.206058 -22.000005
v -8.357669 -3.264001 -43.999997
v 8.138582 -1.573554 -66.000003
v -4.346894 -1.891913 -87.999995
v -6.340644 -13.356695 0.265782
v 9.961869 -10.000000 -22.000005
v 8.698023 -15.139135 -43.999997
v -0.674712 -11.166691 -66.000003
v 8.663052 -13.478265 -87.999995
v 1.239742 -25.127637 0.000000
v 0.000000 -20.000000 -22.000005
v -3.314566 -31.377292 -43.999997
v 5.977966 -29.094088 -66.000003
v -1.694873 -23.311255 -87.999995
v -2.818757 -22.524853 66.265004
v 0.000000 -30.514555 43.999997
v -5.888738 -25.361586 21.999999
v 4.883752 -14.844977 66.000003
v -6.906364 -12.663095 43.999997
v 7.055038 -13.632668 21.999999
v -5.450673 -4.476404 66.000003
v 8.138582 -3.889085 43.999997
v 4.375338 -3.348950 21.999999
v 7.621975 11.463671 66.000003
v -2.394913 6.930629 43.999997
v 3.957774 12.305244 21.999999
v -0.000000 20.000000 88.000001
v -0.000000 20.000000 66.000003
v -0.000000 20.000000 43.999997
v -0.000000 20.000000 21.999999
v 3.300153 -25.589991 88.000001
v 8.394807 -11.173644 88.000001
v -2.622954 -4.332692 88.000001
v 9.235237 6.640445 88.000001
v -0.000000 15.826106 -110.000000
v -0.000000 15.826105 -87.999995
v -0.000000 15.826105 -66.000003
v -0.000000 15.826105 -43.999997
v -0.000000 15.826104 -22.000005
v -0.000000 15.826105 0.000000
v -0.000000 15.826105 21.999999
v -0.000000 15.826105 43.999997
v -0.000000 15.826105 66.000003
v -0.000000 15.826105 88.000008
v -0.000000 15.826106 110.000000
vt 0.003434 0.590285
vt 0.003434 0.409716
vt 0.996566 0.409716
vt 0.996566 0.590285
vt 0.003434 0.500000
vt 0.996566 0.500000
vt 0.003434 0.545143
vt 0.996566 0.545143
vt 0.003434 0.454858
vt 0.996566 0.454858
vt 0.500000 0.590285
vt 0.599313 0.590285
vt 0.698626 0.590285
vt 0.797940 0.590285
vt 0.897253 0.590285
vt 0.500000 0.545143
vt 0.599313 0.545143
vt 0.698626 0.545143
vt 0.797940 0.545143
vt 0.897253 0.545143
vt 0.500000 0.500000
vt 0.599313 0.500000
vt 0.698626 0.500000
vt 0.797940 0.500000
vt 0.897253 0.500000
vt 0.500000 0.454858
vt 0.599313 0.454858
vt 0.698626 0.454858
vt 0.797940 0.454858
vt 0.897253 0.454858
vt 0.500000 0.409716
vt 0.599313 0.409716
vt 0.698626 0.409716
vt 0.797940 0.409716
vt 0.897253 0.409716
vt 0.202060 0.409716
vt 0.301373 0.409716
vt 0.400687 0.409716
vt 0.202060 0.454858
vt 0.301373 0.454858
vt 0.400687 0.454858
vt 0.202060 0.500000
vt 0.301373 0.500000
vt 0.400687 0.500000
vt 0.202060 0.545143
vt 0.301373 0.545143
vt 0.400687 0.545143
vt 0.102747 0.590285
vt 0.202060 0.590285
vt 0.301373 0.590285
vt 0.400687 0.590285
vt 0.102747 0.409716
vt 0.102747 0.454858
vt 0.102747 0.500000
vt 0.102747 0.545143
vt 0.996566 0.581257
vt 0.897253 0.581257
vt 0.797940 0.581257
vt 0.698627 0.581257
vt 0.599313 0.581257
vt 0.500000 0.581257
vt 0.400687 0.581257
vt 0.301373 0.581257
vt 0.202060 0.581257
vt 0.102747 0.581257
vt 0.003434 0.581257
vn 0.848866 0.528609 0.000000
vn 0.996981 -0.072499 -0.027798
vn 0.913340 0.393877 -0.103301
vn 0.937882 0.000000 -0.346956
vn 0.991868 0.118291 -0.046963
vn 0.848017 0.511581 -0.138391
vn 0.983179 0.131411 -0.126849
vn 0.833507 -0.552449 -0.008141
vn 0.673815 -0.709787 -0.205369
vn 0.811455 -0.564229 -0.152269
vn 0.869393 0.494120 0.000000
vn 0.990721 0.064018 -0.119891
vn 0.997696 0.023660 0.063587
vn 0.976164 -0.100138 0.192553
vn 0.974898 0.217937 0.045571
vn 0.969528 0.244389 -0.017006
vn 0.998781 0.049243 0.003352
vn 0.986439 0.105298 -0.125895
vn 0.988624 -0.150405 -0.000528
vn 0.785690 -0.581234 0.211797
vn 0.858859 0.512212 -0.000149
vn 0.686969 0.659721 -0.304700
vn 0.982238 -0.170366 -0.078633
vn 0.968095 0.249784 -0.020007
vn 0.883655 0.468117 -0.004497
vn 0.833238 -0.535181 0.138909
vn 0.948649 -0.239271 0.206917
vn 0.959455 -0.253460 -0.123309
vn 0.968361 -0.209779 -0.135168
vn 0.901927 -0.348325 0.255338
vn 0.889266 0.457391 0.000000
vn 0.997217 0.043812 -0.060314
vn 0.803133 0.571602 0.168073
vn 0.991782 -0.094432 0.086317
vn 0.999412 0.033713 0.006290
vn 0.948053 -0.251190 0.195191
vn 0.871904 -0.487770 -0.043174
vn 0.956838 -0.264547 0.120315
vn 0.967941 -0.196263 0.156754
vn 0.928301 0.359141 -0.096306
vn 1.000000 0.000000 0.000000
vn 0.882794 0.381888 0.273563
vn 0.832174 0.548793 0.079455
vn 0.971305 -0.232006 -0.052340
vn 0.996579 -0.034747 0.074985
vn 0.990951 -0.041025 -0.127799
vn 0.999234 0.002877 0.039026
vn 0.963510 -0.017746 0.267083
vn 0.943348 -0.330487 0.029569
vn 0.988935 0.000000 0.148347
vn 0.974401 0.133528 -0.180870
vn 0.980440 -0.033032 -0.194026
vn 0.972534 -0.231112 0.027664
vn 0.983435 -0.147197 -0.105773
vn 0.745927 0.666028 -0.000000
vn 1.000000 0.000000 -0.000000
vn 1.000000 0.000000 0.000000
vn 1.000000 0.000000 0.000000
vn 1.000000 0.000000 0.000000
vn 1.000000 0.000000 -0.000000
vn 1.000000 0.000000 -0.000000
vn 1.000000 0.000000 0.000000
vn 1.000000 0.000000 0.000000
vn 1.000000 0.000000 -0.000000
vn 1.000000 0.000000 0.000000
vn 1.000000 0.000000 0.000000
f 57/57/1 20/20/2 56/56/3
f 56/56/3 20/20/2 8/8/4
f 30/30/5 10/10/6 25/25/7
f 6/6/8 25/25/7 10/10/6
f 25/25/7 6/6/8 20/20/2
f 8/8/4 20/20/2 6/6/8
f 35/35/9 4/3/10 30/30/5
f 10/10/6 30/30/5 4/3/10
f 59/59/11 18/18/12 58/58/13
f 58/58/13 18/18/12 19/19/14
f 24/24/15 19/19/14 23/23/16
f 23/23/16 19/19/14 18/18/12
f 29/29/17 24/24/15 28/28/18
f 24/24/15 23/23/16 28/28/18
f 29/29/17 28/28/18 34/34/19
f 34/34/19 28/28/18 33/33/20
f 29/29/17 34/34/19 30/30/5
f 35/35/9 30/30/5 34/34/19
f 25/25/7 24/24/15 30/30/5
f 30/30/5 24/24/15 29/29/17
f 25/25/7 20/20/2 24/24/15
f 20/20/2 19/19/14 24/24/15
f 57/57/1 58/58/13 20/20/2
f 58/58/13 19/19/14 20/20/2
f 61/61/21 16/16/22 60/60/23
f 60/60/23 16/16/22 17/17/24
f 17/17/24 16/16/22 22/22/25
f 22/22/25 16/16/22 21/21/26
f 27/27/27 22/22/25 26/26/28
f 22/22/25 21/21/26 26/26/28
f 31/31/29 32/32/30 26/26/28
f 32/32/30 27/27/27 26/26/28
f 33/33/20 28/28/18 32/32/30
f 32/32/30 28/28/18 27/27/27
f 23/23/16 22/22/25 28/28/18
f 28/28/18 22/22/25 27/27/27
f 23/23/16 18/18/12 22/22/25
f 18/18/12 17/17/24 22/22/25
f 59/59/11 60/60/23 18/18/12
f 60/60/23 17/17/24 18/18/12
f 62/62/31 63/63/32 47/47/33
f 63/63/32 46/46/34 47/47/33
f 44/44/35 47/47/33 43/43/36
f 47/47/33 46/46/34 43/43/36
f 44/44/35 43/43/36 41/41/37
f 41/41/37 43/43/36 40/40/38
f 41/41/37 40/40/38 38/38/39
f 38/38/39 40/40/38 37/37/40
f 26/26/28 41/41/37 31/31/29
f 31/31/29 41/41/37 38/38/39
f 26/26/28 21/21/26 41/41/37
f 21/21/26 44/44/35 41/41/37
f 21/21/26 16/16/22 44/44/35
f 16/16/22 47/47/33 44/44/35
f 62/62/31 47/47/33 61/61/21
f 61/61/21 47/47/33 16/16/22
f 66/66/41 7/7/42 65/65/43
f 65/65/43 7/7/42 55/55/44
f 7/7/42 5/5/45 55/55/44
f 54/54/46 55/55/44 5/5/45
f 54/54/46 5/5/45 53/53/47
f 53/53/47 5/5/45 9/9/48
f 53/53/47 9/9/48 52/52/49
f 52/52/49 9/9/48 2/2/50
f 39/39/51 36/36/52 40/40/38
f 37/37/40 40/40/38 36/36/52
f 43/43/36 42/42/53 40/40/38
f 40/40/38 42/42/53 39/39/51
f 43/43/36 46/46/34 42/42/53
f 42/42/53 46/46/34 45/45/54
f 64/64/55 45/45/54 63/63/32
f 63/63/32 45/45/54 46/46/34
f 39/39/51 53/53/47 36/36/52
f 36/36/52 53/53/47 52/52/49
f 54/54/46 53/53/47 42/42/53
f 39/39/51 42/42/53 53/53/47
f 45/45/54 55/55/44 42/42/53
f 42/42/53 55/55/44 54/54/46
f 64/64/55 65/65/43 45/45/54
f 65/65/43 55/55/44 45/45/54
f 15/15/56 57/57/1 3/4/57
f 3/4/57 57/57/1 56/56/3
f 14/14/58 58/58/13 15/15/56
f 15/15/56 58/58/13 57/57/1
f 59/59/11 58/58/13 13/13/59
f 13/13/59 58/58/13 14/14/58
f 60/60/23 59/59/11 12/12/60
f 12/12/60 59/59/11 13/13/59
f 11/11/61 61/61/21 12/12/60
f 12/12/60 61/61/21 60/60/23
f 51/51/62 62/62/31 11/11/61
f 11/11/61 62/62/31 61/61/21
f 50/50/63 63/63/32 51/51/62
f 51/51/62 63/63/32 62/62/31
f 64/64/55 63/63/32 49/49/64
f 49/49/64 63/63/32 50/50/63
f 65/65/43 64/64/55 48/48/65
f 48/48/65 64/64/55 49/49/64
f 1/1/66 66/66/41 48/48/65
f 48/48/65 66/66/41 65/65/43
