# This file uses centimeters as units for non-parametric coordinates.

v 4.179100 0.120879 3.624722
v 4.179100 0.120879 -3.624722
v 4.179100 18.247215 3.624722
v 4.179100 18.247215 -3.624722
v -4.179100 18.247215 3.624722
v -4.179100 18.247215 -3.624722
v -4.179100 0.120879 3.624722
v -4.179100 0.120879 -3.624722
v 1.387522 0.120879 -3.624722
v 1.387522 18.247215 -3.624722
v -1.387522 18.247215 -3.624722
v -1.387522 0.120879 -3.624722
v -1.387522 18.247215 -3.887223
v -1.387522 0.120879 -3.887223
v 1.387522 18.247215 -3.887223
v 1.387522 0.120879 -3.887223
v 3.742916 18.247215 -3.171632
v -3.742917 18.247215 -3.171632
v -3.742917 18.247215 3.171632
v 3.742916 18.247215 3.171632
v 0.973641 18.247215 -3.442047
v 0.973641 18.247215 -3.171632
v -0.973641 18.247215 -3.442047
v -0.973641 18.247215 -3.171632
v 3.742916 18.072216 3.171632
v 3.742916 18.072216 -3.171632
v 0.973641 18.072216 -3.171632
v 0.973641 18.072216 -3.442047
v -0.973641 18.072216 -3.442047
v -0.973641 18.072216 -3.171632
v -3.742917 18.072216 -3.171632
v -3.742917 18.072216 3.171632
vt 0.503592 0.763641
vt 0.422949 0.763641
vt 0.503592 0.240004
vt 0.422949 0.240004
vt 0.713016 0.763641
vt 0.713016 0.240004
vt 0.246973 0.240004
vt 0.246973 0.763641
vt 0.037550 0.240004
vt 0.037550 0.763641
vt 0.650009 0.976500
vt 0.650009 0.793255
vt 0.866261 0.976500
vt 0.730008 0.793255
vt 0.730009 0.785443
vt 0.786262 0.785443
vt 0.786262 0.793255
vt 0.866261 0.793255
vt 0.327617 0.240004
vt 0.327617 0.763641
vt 0.415366 0.240003
vt 0.415366 0.763640
vt 0.335200 0.240004
vt 0.335200 0.763641
vt 0.335200 0.771225
vt 0.415366 0.771223
vt 0.496009 0.771221
vt 0.496014 0.980645
vt 0.483409 0.784310
vt 0.483413 0.967556
vt 0.403410 0.784312
vt 0.403410 0.776500
vt 0.347156 0.776502
vt 0.254561 0.980650
vt 0.267161 0.967560
vt 0.254556 0.771226
vt 0.267157 0.784315
vt 0.347156 0.784313
vt 0.644954 0.976500
vt 0.644954 0.793255
vt 0.650009 0.788200
vt 0.730008 0.788199
vt 0.722194 0.780395
vt 0.730007 0.780388
vt 0.722199 0.785450
vt 0.786261 0.780388
vt 0.794072 0.780382
vt 0.794075 0.785438
vt 0.786262 0.788199
vt 0.866261 0.788199
vt 0.871316 0.793255
vt 0.871317 0.976500
vt 0.866261 0.981555
vt 0.650009 0.981556
vn 0.000000 0.000000 -1.000000
vn 0.000000 0.000000 -1.000000
vn 0.000000 0.000000 -1.000000
vn 0.000000 0.000000 -1.000000
vn 0.000000 0.000000 -1.000000
vn 0.000000 0.000000 -1.000000
vn -1.000000 0.000000 -0.000000
vn -1.000000 0.000000 -0.000000
vn -1.000000 0.000000 -0.000000
vn -1.000000 0.000000 -0.000000
vn -1.000000 0.000000 -0.000000
vn -1.000000 0.000000 -0.000000
vn 1.000000 0.000000 0.000000
vn 1.000000 0.000000 0.000000
vn 1.000000 0.000000 0.000000
vn 1.000000 0.000000 0.000000
vn 1.000000 0.000000 0.000000
vn 1.000000 0.000000 0.000000
vn 0.000000 1.000000 0.000000
vn 0.000000 1.000000 0.000000
vn 0.000000 1.000000 0.000000
vn 0.000000 1.000000 0.000000
vn 0.000000 1.000000 0.000000
vn 0.000000 1.000000 0.000000
vn 0.000000 1.000000 0.000000
vn 0.000000 1.000000 0.000000
vn 0.000000 1.000000 0.000000
vn 0.000000 1.000000 0.000000
vn 0.000000 1.000000 0.000000
vn 0.000000 1.000000 0.000000
vn 0.000000 1.000000 0.000000
vn 0.000000 1.000000 0.000000
vn 0.000000 1.000000 0.000000
vn 0.000000 1.000000 0.000000
vn 0.000000 1.000000 0.000000
vn 0.000000 1.000000 0.000000
vn 0.000000 0.000000 -1.000000
vn 0.000000 0.000000 -1.000000
vn 0.000000 0.000000 -1.000000
vn 0.000000 0.000000 -1.000000
vn 0.000000 0.000000 -1.000000
vn 0.000000 0.000000 -1.000000
vn 0.000000 0.000000 -1.000000
vn 0.000000 0.000000 -1.000000
vn 0.000000 0.000000 -1.000000
vn 0.000000 0.000000 -1.000000
vn 0.000000 0.000000 -1.000000
vn 0.000000 0.000000 -1.000000
vn -1.000000 0.000000 -0.000000
vn -1.000000 0.000000 -0.000000
vn -1.000000 0.000000 -0.000000
vn -1.000000 0.000000 -0.000000
vn -1.000000 0.000000 -0.000000
vn -1.000000 0.000000 -0.000000
vn 1.000000 0.000000 0.000000
vn 1.000000 0.000000 0.000000
vn 1.000000 0.000000 0.000000
vn 1.000000 0.000000 0.000000
vn 1.000000 0.000000 0.000000
vn 1.000000 0.000000 0.000000
vn 0.000000 1.000000 0.000000
vn 0.000000 1.000000 0.000000
vn 0.000000 1.000000 0.000000
vn 0.000000 1.000000 0.000000
vn 0.000000 1.000000 0.000000
vn 0.000000 1.000000 0.000000
vn 0.000000 1.000000 -0.000000
vn 0.000000 1.000000 -0.000000
vn 0.000000 1.000000 -0.000000
vn 0.000000 1.000000 -0.000000
vn 0.000000 1.000000 -0.000000
vn 0.000000 1.000000 0.000000
vn 0.000000 1.000000 -0.000000
vn 0.000000 1.000000 -0.000000
vn 0.000000 1.000000 0.000000
vn 0.000000 1.000000 -0.000000
vn 0.000000 1.000000 0.000000
vn 0.000000 1.000000 0.000000
vn 0.000000 1.000000 0.000000
vn 0.000000 1.000000 0.000000
vn 0.000000 1.000000 0.000000
vn 0.000000 1.000000 0.000000
vn 0.000000 1.000000 0.000000
vn 0.000000 1.000000 0.000000
vn 0.000000 1.000000 0.000000
vn 0.000000 1.000000 0.000000
vn 0.000000 1.000000 0.000000
vn 0.000000 1.000000 -0.000000
vn 0.000000 1.000000 0.000000
vn 0.000000 1.000000 0.000000
vn 0.000000 1.000000 0.000000
vn 0.000000 1.000000 0.000000
vn 0.000000 1.000000 0.000000
vn 0.000000 1.000000 0.000000
vn 0.000000 1.000000 0.000000
vn 0.000000 1.000000 0.000000
vn 0.000000 1.000000 0.000000
vn 0.000000 1.000000 0.000000
vn 0.000000 1.000000 0.000000
vn 0.000000 1.000000 0.000000
vn 0.000000 1.000000 0.000000
vn 0.000000 1.000000 0.000000
vn 0.000000 1.000000 0.000000
vn 0.000000 1.000000 0.000000
vn 0.000000 1.000000 0.000000
vn 0.000000 1.000000 0.000000
vn 0.000000 1.000000 0.000000
vn 0.000000 1.000000 0.000000
vn -1.000000 0.000000 -0.000000
vn -1.000000 0.000000 -0.000000
vn -1.000000 0.000000 -0.000000
vn -1.000000 0.000000 -0.000000
vn -1.000000 0.000000 -0.000000
vn -1.000000 0.000000 -0.000000
vn -0.000000 0.000000 1.000000
vn -0.000000 0.000000 1.000000
vn -0.000000 0.000000 1.000000
vn -0.000000 0.000000 1.000000
vn -0.000000 0.000000 1.000000
vn -0.000000 0.000000 1.000000
vn -1.000000 0.000000 -0.000000
vn -1.000000 0.000000 -0.000000
vn -1.000000 0.000000 -0.000000
vn -1.000000 0.000000 -0.000000
vn -1.000000 0.000000 -0.000000
vn -1.000000 0.000000 -0.000000
vn -0.000000 0.000000 1.000000
vn -0.000000 0.000000 1.000000
vn -0.000000 0.000000 1.000000
vn -0.000000 0.000000 1.000000
vn -0.000000 0.000000 1.000000
vn -0.000000 0.000000 1.000000
vn 1.000000 0.000000 0.000000
vn 1.000000 0.000000 0.000000
vn 1.000000 0.000000 0.000000
vn 1.000000 0.000000 0.000000
vn 1.000000 0.000000 0.000000
vn 1.000000 0.000000 0.000000
vn -0.000000 0.000000 1.000000
vn -0.000000 0.000000 1.000000
vn -0.000000 0.000000 1.000000
vn -0.000000 0.000000 1.000000
vn -0.000000 0.000000 1.000000
vn -0.000000 0.000000 1.000000
vn 1.000000 0.000000 0.000000
vn 1.000000 0.000000 0.000000
vn 1.000000 0.000000 0.000000
vn 1.000000 0.000000 0.000000
vn 1.000000 0.000000 0.000000
vn 1.000000 0.000000 0.000000
vn 0.000000 0.000000 -1.000000
vn 0.000000 0.000000 -1.000000
vn 0.000000 0.000000 -1.000000
vn 0.000000 0.000000 -1.000000
vn 0.000000 0.000000 -1.000000
vn 0.000000 0.000000 -1.000000
f 6/1/1 11/2/2 8/3/3
f 8/3/4 11/2/5 12/4/6
f 5/5/7 6/1/8 7/6/9
f 7/6/10 6/1/11 8/3/12
f 2/7/13 4/8/14 1/9/15
f 1/9/16 4/8/17 3/10/18
f 25/11/19 26/12/20 32/13/21
f 26/12/22 27/14/23 32/13/24
f 28/15/25 29/16/26 27/14/27
f 29/16/28 30/17/29 27/14/30
f 27/14/31 30/17/32 32/13/33
f 30/17/34 31/18/35 32/13/36
f 9/19/37 10/20/38 2/7/39
f 2/7/40 10/20/41 4/8/42
f 14/21/43 13/22/44 16/23/45
f 16/23/46 13/22/47 15/24/48
f 12/4/49 11/2/50 14/21/51
f 14/21/52 11/2/53 13/22/54
f 10/20/55 9/19/56 15/24/57
f 15/24/58 9/19/59 16/23/60
f 15/24/61 13/22/62 10/25/63
f 13/22/64 11/26/65 10/25/66
f 6/27/67 5/28/68 18/29/69
f 18/29/70 5/28/71 19/30/72
f 6/27/73 18/29/74 11/26/75
f 18/29/76 24/31/77 11/26/78
f 24/31/79 23/32/80 11/26/81
f 11/26/82 23/32/83 10/25/84
f 23/32/85 21/33/86 10/25/87
f 5/28/88 3/34/89 19/30/90
f 19/30/91 3/34/92 20/35/93
f 3/34/94 4/36/95 20/35/96
f 20/35/97 4/36/98 17/37/99
f 4/36/100 10/25/101 17/37/102
f 22/38/103 17/37/104 21/33/105
f 10/25/106 21/33/107 17/37/108
f 20/39/109 17/40/110 25/11/111
f 25/11/112 17/40/113 26/12/114
f 17/41/115 22/42/116 26/12/117
f 26/12/118 22/42/119 27/14/120
f 22/43/121 21/44/122 27/45/123
f 27/45/124 21/44/125 28/15/126
f 21/44/127 23/46/128 28/15/129
f 28/15/130 23/46/131 29/16/132
f 23/46/133 24/47/134 29/16/135
f 29/16/136 24/47/137 30/48/138
f 24/49/139 18/50/140 30/17/141
f 30/17/142 18/50/143 31/18/144
f 18/51/145 19/52/146 31/18/147
f 31/18/148 19/52/149 32/13/150
f 19/53/151 20/54/152 32/13/153
f 32/13/154 20/54/155 25/11/156
