# This file uses centimeters as units for non-parametric coordinates.

v -0.214813 0.190481 -0.711488
v -0.305689 0.331945 -0.819790
v 0.158898 0.890124 -0.266117
v 0.068021 1.031587 -0.374420
v 0.005689 0.890124 -0.137560
v -0.085188 1.031587 -0.245862
v -0.368022 0.190481 -0.582931
v -0.458898 0.331945 -0.691233
v 0.500258 0.341726 0.748887
v 0.421974 0.183083 0.655591
v 0.088775 1.038790 0.258501
v 0.010491 0.880148 0.165206
v -0.064434 1.038790 0.387058
v -0.142718 0.880148 0.293763
v 0.347049 0.341726 0.877445
v 0.268765 0.183083 0.784149
v 0.189939 1.066780 -0.399329
v 0.189939 1.065950 0.400671
v 0.189939 -0.228813 -0.400671
v 0.189939 -0.229642 0.399329
v -0.210061 -0.228813 -0.400671
v -0.210061 -0.229642 0.399329
v -0.210061 1.066780 -0.399329
v -0.210061 1.065950 0.400671
v -0.454444 -1.204108 0.310837
v -0.454444 -1.204108 0.110837
v 0.127649 -0.195892 0.310837
v 0.127649 -0.195892 0.110837
v -0.045556 -0.095892 0.310837
v -0.045556 -0.095892 0.110837
v -0.627649 -1.104108 0.310837
v -0.627649 -1.104108 0.110837
v 0.627649 -1.104108 -0.074632
v 0.627649 -1.104108 -0.274632
v 0.045556 -0.095892 -0.074632
v 0.045556 -0.095892 -0.274632
v -0.127649 -0.195892 -0.074632
v -0.127649 -0.195892 -0.274632
v 0.454444 -1.204108 -0.074632
v 0.454444 -1.204108 -0.274632
v 0.139939 1.044522 0.150000
v 0.139939 1.044522 -0.150000
v 0.139939 1.544522 0.150000
v 0.139939 1.544522 -0.150000
v -0.160061 1.544522 0.150000
v -0.160061 1.544522 -0.150000
v -0.160061 1.044522 0.150000
v -0.160061 1.044522 -0.150000
vt 0.804145 0.410329
vt 0.843535 0.410329
vt 0.804145 0.725450
vt 0.843535 0.725450
vt 0.922315 0.725450
vt 0.882925 0.725450
vt 0.922315 0.410329
vt 0.882925 0.410329
vt 0.922315 0.370939
vt 0.882925 0.370939
vt 0.764755 0.410329
vt 0.764755 0.725450
vt 0.125691 0.409617
vt 0.165547 0.409597
vt 0.125843 0.728483
vt 0.165701 0.728463
vt 0.085985 0.728502
vt 0.046126 0.728520
vt 0.085834 0.409638
vt 0.045976 0.409651
vt 0.085844 0.369793
vt 0.045993 0.369779
vt 0.205404 0.409576
vt 0.205560 0.728444
vt 0.389627 0.727930
vt 0.232066 0.728088
vt 0.389371 0.472763
vt 0.231811 0.472921
vt 0.468072 0.393903
vt 0.625632 0.393745
vt 0.468151 0.472684
vt 0.625711 0.472525
vt 0.468407 0.727850
vt 0.625968 0.727693
vt 0.468485 0.806630
vt 0.626045 0.806474
vt 0.704748 0.727613
vt 0.704491 0.472446
vt 0.708429 0.060394
vt 0.747819 0.060460
vt 0.707930 0.375516
vt 0.747320 0.375578
vt 0.668540 0.375453
vt 0.629151 0.375391
vt 0.669039 0.060333
vt 0.629649 0.060270
vt 0.708499 0.021002
vt 0.747890 0.021072
vt 0.590258 0.060208
vt 0.589761 0.375328
vt 0.350746 0.055484
vt 0.390137 0.055500
vt 0.350615 0.370605
vt 0.390005 0.370621
vt 0.468785 0.370654
vt 0.429395 0.370638
vt 0.468917 0.055533
vt 0.429527 0.055517
vt 0.350763 0.016094
vt 0.390153 0.016111
vt 0.508307 0.055550
vt 0.508175 0.370671
vt 0.522128 0.830550
vt 0.581213 0.830550
vt 0.522128 0.929025
vt 0.581213 0.929025
vt 0.581212 0.988110
vt 0.640297 0.988111
vt 0.640298 0.929026
vt 0.463043 0.929025
vt 0.403958 0.929026
vt 0.463042 0.830550
vt 0.403957 0.830551
vt 0.640298 0.830550
vn 1.000000 0.000000 0.000000
vn 1.000000 0.000000 0.000000
vn 1.000000 0.000000 0.000000
vn 1.000000 0.000000 0.000000
vn 1.000000 0.000000 0.000000
vn 1.000000 0.000000 0.000000
vn -1.000000 0.000000 0.000000
vn -1.000000 0.000000 0.000000
vn -1.000000 0.000000 0.000000
vn -1.000000 0.000000 0.000000
vn -1.000000 0.000000 0.000000
vn -1.000000 0.000000 0.000000
vn 0.000000 0.000000 -1.000000
vn 0.000000 0.000000 -1.000000
vn 0.000000 0.000000 -1.000000
vn 0.000000 0.000000 -1.000000
vn 0.000000 0.000000 -1.000000
vn 0.000000 0.000000 -1.000000
vn 0.000000 1.000000 0.000000
vn 0.000000 1.000000 0.000000
vn 0.000000 1.000000 0.000000
vn 0.000000 1.000000 0.000000
vn 0.000000 1.000000 0.000000
vn 0.000000 1.000000 0.000000
vn 0.000000 -1.000000 0.000000
vn 0.000000 -1.000000 0.000000
vn 0.000000 -1.000000 0.000000
vn 0.000000 -1.000000 0.000000
vn 0.000000 -1.000000 0.000000
vn 0.000000 -1.000000 0.000000
vn 1.000000 0.000000 0.000000
vn 1.000000 0.000000 0.000000
vn 1.000000 0.000000 0.000000
vn 1.000000 0.000000 0.000000
vn 1.000000 0.000000 0.000000
vn 1.000000 0.000000 0.000000
vn -1.000000 0.000000 0.000000
vn -1.000000 0.000000 0.000000
vn -1.000000 0.000000 0.000000
vn -1.000000 0.000000 0.000000
vn -1.000000 0.000000 0.000000
vn -1.000000 0.000000 0.000000
vn 0.000000 0.000000 1.000000
vn 0.000000 0.000000 1.000000
vn 0.000000 0.000000 1.000000
vn 0.000000 0.000000 1.000000
vn 0.000000 0.000000 1.000000
vn 0.000000 0.000000 1.000000
vn 0.000000 -1.000000 0.000000
vn 0.000000 -1.000000 0.000000
vn 0.000000 -1.000000 0.000000
vn 0.000000 -1.000000 0.000000
vn 0.000000 -1.000000 0.000000
vn 0.000000 -1.000000 0.000000
vn 0.000000 1.000000 0.000000
vn 0.000000 1.000000 0.000000
vn 0.000000 1.000000 0.000000
vn 0.000000 1.000000 0.000000
vn 0.000000 1.000000 0.000000
vn 0.000000 1.000000 0.000000
vn 1.000000 0.000000 0.000000
vn 1.000000 0.000000 0.000000
vn 1.000000 0.000000 0.000000
vn 1.000000 0.000000 0.000000
vn 1.000000 0.000000 0.000000
vn 1.000000 0.000000 0.000000
vn 0.000000 -0.999999 -0.001037
vn 0.000000 -0.999999 -0.001037
vn 0.000000 -0.999999 -0.001037
vn 0.000000 -0.999999 -0.001037
vn 0.000000 -0.999999 -0.001037
vn 0.000000 -0.999999 -0.001037
vn -1.000000 0.000000 0.000000
vn -1.000000 0.000000 0.000000
vn -1.000000 0.000000 0.000000
vn -1.000000 0.000000 0.000000
vn -1.000000 0.000000 0.000000
vn -1.000000 0.000000 0.000000
vn 0.000000 0.999999 0.001037
vn 0.000000 0.999999 0.001037
vn 0.000000 0.999999 0.001037
vn 0.000000 0.999999 0.001037
vn 0.000000 0.999999 0.001037
vn 0.000000 0.999999 0.001037
vn 0.000000 -0.001036 0.999999
vn 0.000000 -0.001036 0.999999
vn 0.000000 -0.001036 0.999999
vn 0.000000 -0.001036 0.999999
vn 0.000000 -0.001036 0.999999
vn 0.000000 -0.001036 0.999999
vn 0.000000 0.001036 -0.999999
vn 0.000000 0.001036 -0.999999
vn 0.000000 0.001036 -0.999999
vn 0.000000 0.001036 -0.999999
vn 0.000000 0.001036 -0.999999
vn 0.000000 0.001036 -0.999999
vn 1.000000 0.000000 0.000000
vn 1.000000 0.000000 0.000000
vn 1.000000 0.000000 0.000000
vn 1.000000 0.000000 0.000000
vn 1.000000 0.000000 0.000000
vn 1.000000 0.000000 0.000000
vn -1.000000 0.000000 0.000000
vn -1.000000 0.000000 0.000000
vn -1.000000 0.000000 0.000000
vn -1.000000 0.000000 0.000000
vn -1.000000 0.000000 0.000000
vn -1.000000 0.000000 0.000000
vn 0.000000 -1.000000 0.000000
vn 0.000000 -1.000000 0.000000
vn 0.000000 -1.000000 0.000000
vn 0.000000 -1.000000 0.000000
vn 0.000000 -1.000000 0.000000
vn 0.000000 -1.000000 0.000000
vn 0.000000 0.000000 -1.000000
vn 0.000000 0.000000 -1.000000
vn 0.000000 0.000000 -1.000000
vn 0.000000 0.000000 -1.000000
vn 0.000000 0.000000 -1.000000
vn 0.000000 0.000000 -1.000000
vn 0.000000 0.000000 1.000000
vn 0.000000 0.000000 1.000000
vn 0.000000 0.000000 1.000000
vn 0.000000 0.000000 1.000000
vn 0.000000 0.000000 1.000000
vn 0.000000 0.000000 1.000000
vn 1.000000 0.000000 0.000000
vn 1.000000 0.000000 0.000000
vn 1.000000 0.000000 0.000000
vn 1.000000 0.000000 0.000000
vn 1.000000 0.000000 0.000000
vn 1.000000 0.000000 0.000000
vn -1.000000 0.000000 0.000000
vn -1.000000 0.000000 0.000000
vn -1.000000 0.000000 0.000000
vn -1.000000 0.000000 0.000000
vn -1.000000 0.000000 0.000000
vn -1.000000 0.000000 0.000000
vn 0.000000 -1.000000 0.000000
vn 0.000000 -1.000000 0.000000
vn 0.000000 -1.000000 0.000000
vn 0.000000 -1.000000 0.000000
vn 0.000000 -1.000000 0.000000
vn 0.000000 -1.000000 0.000000
vn 0.000000 0.000000 -1.000000
vn 0.000000 0.000000 -1.000000
vn 0.000000 0.000000 -1.000000
vn 0.000000 0.000000 -1.000000
vn 0.000000 0.000000 -1.000000
vn 0.000000 0.000000 -1.000000
vn 0.000000 0.000000 1.000000
vn 0.000000 0.000000 1.000000
vn 0.000000 0.000000 1.000000
vn 0.000000 0.000000 1.000000
vn 0.000000 0.000000 1.000000
vn 0.000000 0.000000 1.000000
vn 1.000000 0.000000 0.000000
vn 1.000000 0.000000 0.000000
vn 1.000000 0.000000 0.000000
vn 1.000000 0.000000 0.000000
vn 1.000000 0.000000 0.000000
vn 1.000000 0.000000 0.000000
vn 0.000000 1.000000 0.000000
vn 0.000000 1.000000 0.000000
vn 0.000000 1.000000 0.000000
vn 0.000000 1.000000 0.000000
vn 0.000000 1.000000 0.000000
vn 0.000000 1.000000 0.000000
vn -1.000000 0.000000 0.000000
vn -1.000000 0.000000 0.000000
vn -1.000000 0.000000 0.000000
vn -1.000000 0.000000 0.000000
vn -1.000000 0.000000 0.000000
vn -1.000000 0.000000 0.000000
vn 0.000000 0.000000 -1.000000
vn 0.000000 0.000000 -1.000000
vn 0.000000 0.000000 -1.000000
vn 0.000000 0.000000 -1.000000
vn 0.000000 0.000000 -1.000000
vn 0.000000 0.000000 -1.000000
vn 0.000000 0.000000 1.000000
vn 0.000000 0.000000 1.000000
vn 0.000000 0.000000 1.000000
vn 0.000000 0.000000 1.000000
vn 0.000000 0.000000 1.000000
vn 0.000000 0.000000 1.000000
f 1/1/1 2/2/2 3/3/3
f 3/3/4 2/2/5 4/4/6
f 5/5/7 6/6/8 7/7/9
f 7/7/10 6/6/11 8/8/12
f 7/7/13 8/8/14 1/9/15
f 1/9/16 8/8/17 2/10/18
f 2/2/19 8/8/20 4/4/21
f 4/4/22 8/8/23 6/6/24
f 7/11/25 1/1/26 5/12/27
f 5/12/28 1/1/29 3/3/30
f 9/13/31 10/14/32 11/15/33
f 11/15/34 10/14/35 12/16/36
f 13/17/37 14/18/38 15/19/39
f 15/19/40 14/18/41 16/20/42
f 15/19/43 16/20/44 9/21/45
f 9/21/46 16/20/47 10/22/48
f 10/14/49 16/23/50 12/16/51
f 12/16/52 16/23/53 14/24/54
f 15/19/55 9/13/56 13/17/57
f 13/17/58 9/13/59 11/15/60
f 17/25/61 18/26/62 19/27/63
f 19/27/64 18/26/65 20/28/66
f 19/29/67 20/30/68 21/31/69
f 21/31/70 20/30/71 22/32/72
f 21/31/73 22/32/74 23/33/75
f 23/33/76 22/32/77 24/34/78
f 23/33/79 24/34/80 17/35/81
f 17/35/82 24/34/83 18/36/84
f 18/37/85 24/34/86 20/38/87
f 20/38/88 24/34/89 22/32/90
f 23/33/91 17/25/92 21/31/93
f 21/31/94 17/25/95 19/27/96
f 25/39/97 26/40/98 27/41/99
f 27/41/100 26/40/101 28/42/102
f 29/43/103 30/44/104 31/45/105
f 31/45/106 30/44/107 32/46/108
f 31/47/109 32/48/110 25/39/111
f 25/39/112 32/48/113 26/40/114
f 26/49/115 32/46/116 28/50/117
f 28/50/118 32/46/119 30/44/120
f 31/45/121 25/39/122 29/43/123
f 29/43/124 25/39/125 27/41/126
f 33/51/127 34/52/128 35/53/129
f 35/53/130 34/52/131 36/54/132
f 37/55/133 38/56/134 39/57/135
f 39/57/136 38/56/137 40/58/138
f 39/59/139 40/60/140 33/51/141
f 33/51/142 40/60/143 34/52/144
f 34/52/145 40/58/146 36/54/147
f 36/54/148 40/58/149 38/56/150
f 39/57/151 33/61/152 37/55/153
f 37/55/154 33/61/155 35/62/156
f 41/63/157 42/64/158 43/65/159
f 43/65/160 42/64/161 44/66/162
f 43/67/163 44/66/164 45/68/165
f 45/68/166 44/66/167 46/69/168
f 45/70/169 46/71/170 47/72/171
f 47/72/172 46/71/173 48/73/174
f 42/64/175 48/74/176 44/66/177
f 44/66/178 48/74/179 46/69/180
f 47/72/181 41/63/182 45/70/183
f 45/70/184 41/63/185 43/65/186
