# This file uses centimeters as units for non-parametric coordinates.

v 27.500003 -0.000000 -27.500003
v -27.499993 -0.000000 -27.500003
v 27.500003 0.000000 27.499993
v -27.499993 0.000000 27.499993
vt 0.004072 0.004072
vt 0.995928 0.004072
vt 0.995928 0.995927
vt 0.004072 0.995928
vn 0.000000 1.000000 -0.000000
vn 0.000000 1.000000 -0.000000
vn 0.000000 1.000000 -0.000000
vn 0.000000 1.000000 -0.000000
f 3/1/1 1/2/2 4/4/3
f 4/4/3 1/2/2 2/3/4
v 27.500003 -0.000000 -27.500003
v -27.499993 -0.000000 -27.500003
v 27.500003 0.000000 27.499993
v -27.499993 0.000000 27.499993
vt 0.004072 0.004072
vt 0.995928 0.004072
vt 0.995928 0.995927
vt 0.004072 0.995928
vn 0.000000 1.000000 -0.000000
vn 0.000000 1.000000 -0.000000
vn 0.000000 1.000000 -0.000000
vn 0.000000 1.000000 -0.000000
f 7/5/5 5/6/6 8/8/7
f 8/8/7 5/6/6 6/7/8
