# This file uses centimeters as units for non-parametric coordinates.

v -1.969911 0.066989 -0.426095
v -1.743050 0.066989 -0.426095
v -1.969911 0.555878 -0.426095
v -1.743050 0.555878 -0.426095
v -1.969911 0.555878 -0.570540
v -1.743050 0.555878 -0.570540
v -1.969911 0.066989 -0.570540
v -1.743050 0.066989 -0.570540
v -1.969911 0.066989 0.557006
v -1.743050 0.066989 0.557006
v -1.969911 0.555878 0.557006
v -1.743050 0.555878 0.557006
v -1.969911 0.555878 0.412562
v -1.743050 0.555878 0.412562
v -1.969911 0.066989 0.412562
v -1.743050 0.066989 0.412562
v -2.002908 -0.318469 0.949205
v 2.416046 -0.452999 0.949205
v -2.002908 0.390831 0.949205
v 2.693445 -0.008280 0.949205
v -2.002908 0.390831 -0.949205
v 2.693445 -0.008280 -0.949205
v -2.002908 -0.318469 -0.949205
v 2.416046 -0.452999 -0.949205
v 0.398431 0.564630 -0.949205
v 0.581551 -0.452999 -0.949205
v 0.573518 -0.452999 0.949205
v 0.390398 0.564630 0.949205
v -0.411699 0.566370 -0.949205
v -0.727459 -0.452999 -0.949205
v -0.727459 -0.452999 0.949205
v -0.419732 0.566370 0.949205
v -1.518231 -0.452999 -0.949205
v -1.526264 -0.452999 0.949205
v -1.410058 0.457119 0.949205
v -1.402025 0.457119 -0.949205
v -2.003581 0.535586 1.022221
v -1.666150 0.535586 1.022221
v -2.003581 0.636675 1.022221
v -1.666150 0.580031 1.022221
v -2.003581 0.636675 -1.022221
v -1.666150 0.580031 -1.022221
v -2.003581 0.535586 -1.022221
v -1.666150 0.535586 -1.022221
v -1.358034 -0.529726 0.989000
v -1.464982 -0.271529 0.989000
v -1.358034 -0.013333 0.989000
v -1.099837 0.093616 0.989000
v -0.841640 -0.013333 0.989000
v -0.734692 -0.271529 0.989000
v -0.841640 -0.529726 0.989000
v -1.099837 -0.636675 0.989000
v -1.358034 -0.529726 0.685397
v -1.464982 -0.271529 0.685397
v -1.358034 -0.013333 0.685397
v -1.099837 0.093616 0.685397
v -0.841640 -0.013333 0.685397
v -0.734692 -0.271529 0.685397
v -0.841640 -0.529726 0.685397
v -1.099837 -0.636675 0.685397
v -1.358034 -0.529726 -0.687354
v -1.464982 -0.271529 -0.687354
v -1.358034 -0.013333 -0.687354
v -1.099837 0.093616 -0.687354
v -0.841640 -0.013333 -0.687354
v -0.734692 -0.271529 -0.687354
v -0.841640 -0.529726 -0.687354
v -1.099837 -0.636675 -0.687354
v -1.358034 -0.529726 -0.990958
v -1.464982 -0.271529 -0.990958
v -1.358034 -0.013333 -0.990958
v -1.099837 0.093616 -0.990958
v -0.841640 -0.013333 -0.990958
v -0.734692 -0.271529 -0.990958
v -0.841640 -0.529726 -0.990958
v -1.099837 -0.636675 -0.990958
v 1.275710 -0.529726 -0.687354
v 1.168761 -0.271529 -0.687354
v 1.275710 -0.013333 -0.687354
v 1.533906 0.093616 -0.687354
v 1.792103 -0.013333 -0.687354
v 1.899052 -0.271529 -0.687354
v 1.792103 -0.529726 -0.687354
v 1.533906 -0.636675 -0.687354
v 1.275710 -0.529726 -0.990958
v 1.168761 -0.271529 -0.990958
v 1.275710 -0.013333 -0.990958
v 1.533906 0.093616 -0.990958
v 1.792103 -0.013333 -0.990958
v 1.899052 -0.271529 -0.990958
v 1.792103 -0.529726 -0.990958
v 1.533906 -0.636675 -0.990958
v 1.275710 -0.529726 0.989000
v 1.168761 -0.271529 0.989000
v 1.275710 -0.013333 0.989000
v 1.533906 0.093616 0.989000
v 1.792103 -0.013333 0.989000
v 1.899052 -0.271529 0.989000
v 1.792103 -0.529726 0.989000
v 1.533906 -0.636675 0.989000
v 1.275710 -0.529726 0.685397
v 1.168761 -0.271529 0.685397
v 1.275710 -0.013333 0.685397
v 1.533906 0.093616 0.685397
v 1.792103 -0.013333 0.685397
v 1.899052 -0.271529 0.685397
v 1.792103 -0.529726 0.685397
v 1.533906 -0.636675 0.685397
vt 0.118171 0.337529
vt 0.074014 0.337529
vt 0.135349 0.337529
vt 0.091192 0.337529
vt 0.118172 0.395670
vt 0.091192 0.395670
vt 0.074014 0.395670
vt 0.135350 0.395670
vt 0.162328 0.337528
vt 0.162330 0.395669
vt 0.118649 0.260707
vt 0.145629 0.260707
vt 0.145628 0.318848
vt 0.118649 0.318848
vt 0.101471 0.318848
vt 0.074491 0.318847
vt 0.074492 0.260706
vt 0.101471 0.260707
vt 0.162806 0.260707
vt 0.162806 0.318848
vt 0.496217 0.436745
vt 0.505014 0.360365
vt 0.596430 0.360668
vt 0.613565 0.422157
vt 0.613224 0.525109
vt 0.612668 0.692782
vt 0.611865 0.934737
vt 0.552358 0.934539
vt 0.481591 0.668747
vt 0.481713 0.564334
vt 0.237185 0.436672
vt 0.237275 0.358758
vt 0.481948 0.359038
vt 0.481860 0.435923
vt 0.237039 0.565082
vt 0.858234 0.424004
vt 0.875779 0.361594
vt 0.967196 0.361897
vt 0.975483 0.439368
vt 0.989141 0.567051
vt 0.988571 0.671462
vt 0.916049 0.935745
vt 0.856541 0.935548
vt 0.857338 0.694629
vt 0.857896 0.525920
vt 0.858459 0.359176
vt 0.613565 0.422157
vt 0.613787 0.358326
vt 0.856538 0.935548
vt 0.856340 0.995056
vt 0.611668 0.994244
vt 0.614104 0.266909
vt 0.858777 0.267759
vt 0.236916 0.669495
vt 0.481308 0.943799
vt 0.236635 0.943547
vt 0.613224 0.525109
vt 0.857337 0.694629
vt 0.058559 0.453300
vt 0.128859 0.465102
vt 0.127304 0.474362
vt 0.055023 0.474361
vt 0.127304 0.906259
vt 0.055023 0.906259
vt 0.128859 0.915519
vt 0.058558 0.927320
vt 0.207977 0.906259
vt 0.136693 0.906259
vt 0.136693 0.474361
vt 0.207977 0.474361
vt 0.033667 0.906259
vt 0.033668 0.474361
vt 0.741918 0.159180
vt 0.741919 0.195963
vt 0.701955 0.195963
vt 0.701955 0.159178
vt 0.767927 0.221977
vt 0.739660 0.250230
vt 0.713656 0.224212
vt 0.804715 0.221978
vt 0.804712 0.261939
vt 0.767927 0.261937
vt 0.830723 0.195964
vt 0.858985 0.224214
vt 0.832979 0.250231
vt 0.830724 0.159180
vt 0.870687 0.159181
vt 0.870685 0.195967
vt 0.804714 0.133166
vt 0.832977 0.104913
vt 0.858984 0.130927
vt 0.767928 0.133169
vt 0.767923 0.093210
vt 0.804708 0.093201
vt 0.713659 0.130926
vt 0.739668 0.104913
vt 0.741901 0.067210
vt 0.741891 0.030425
vt 0.767892 0.004404
vt 0.804677 0.004392
vt 0.830697 0.030393
vt 0.830710 0.067179
vt 0.533213 0.159185
vt 0.533218 0.195970
vt 0.493257 0.195976
vt 0.493251 0.159189
vt 0.521515 0.224235
vt 0.495503 0.250246
vt 0.467248 0.221990
vt 0.467250 0.261953
vt 0.430465 0.261955
vt 0.430463 0.221994
vt 0.402210 0.250256
vt 0.376195 0.224249
vt 0.404449 0.195988
vt 0.364487 0.195997
vt 0.364479 0.159211
vt 0.404442 0.159202
vt 0.376181 0.130949
vt 0.402188 0.104933
vt 0.430450 0.133186
vt 0.430450 0.093222
vt 0.467235 0.093223
vt 0.467235 0.133184
vt 0.495485 0.104919
vt 0.521502 0.130924
vt 0.404441 0.067208
vt 0.404443 0.030423
vt 0.430456 0.004414
vt 0.467242 0.004416
vt 0.493251 0.030429
vt 0.493248 0.067215
vt 0.533222 0.195970
vt 0.533220 0.159185
vt 0.573183 0.159183
vt 0.573183 0.195969
vt 0.544923 0.130930
vt 0.570932 0.104916
vt 0.599193 0.133171
vt 0.599193 0.093212
vt 0.635979 0.093207
vt 0.635978 0.133171
vt 0.664235 0.104913
vt 0.690247 0.130924
vt 0.661990 0.159182
vt 0.701951 0.159178
vt 0.701955 0.195964
vt 0.661992 0.195968
vt 0.690246 0.224231
vt 0.664230 0.250238
vt 0.635978 0.221977
vt 0.635982 0.261940
vt 0.599197 0.261942
vt 0.599195 0.221979
vt 0.570939 0.250238
vt 0.544926 0.224228
vt 0.635954 0.004396
vt 0.661972 0.030400
vt 0.661982 0.067186
vt 0.573175 0.067211
vt 0.573165 0.030425
vt 0.599168 0.004407
vt 0.235711 0.159217
vt 0.235713 0.196003
vt 0.195752 0.196007
vt 0.195748 0.159221
vt 0.261724 0.222014
vt 0.233466 0.250272
vt 0.207455 0.224260
vt 0.298509 0.222014
vt 0.298509 0.261976
vt 0.261724 0.261976
vt 0.324522 0.196004
vt 0.352776 0.224264
vt 0.326763 0.250273
vt 0.324520 0.159217
vt 0.364479 0.159211
vt 0.364486 0.195997
vt 0.298508 0.133208
vt 0.326760 0.104947
vt 0.352775 0.130955
vt 0.261724 0.133207
vt 0.261725 0.093245
vt 0.298510 0.093245
vt 0.207456 0.130957
vt 0.233469 0.104948
vt 0.235713 0.067234
vt 0.235713 0.030449
vt 0.261724 0.004438
vt 0.298509 0.004437
vt 0.324521 0.030448
vt 0.324521 0.067234
vn 0.000000 0.000000 1.000000
vn 0.000000 0.000000 1.000000
vn 0.000000 0.000000 1.000000
vn 0.000000 0.000000 1.000000
vn 0.000000 0.000000 -1.000000
vn 0.000000 0.000000 -1.000000
vn 0.000000 0.000000 -1.000000
vn 0.000000 0.000000 -1.000000
vn 1.000000 0.000000 0.000000
vn 1.000000 0.000000 0.000000
vn 1.000000 0.000000 0.000000
vn 1.000000 0.000000 0.000000
vn -1.000000 0.000000 0.000000
vn -1.000000 0.000000 0.000000
vn -1.000000 0.000000 0.000000
vn -1.000000 0.000000 0.000000
vn 0.000000 0.000000 1.000000
vn 0.000000 0.000000 1.000000
vn 0.000000 0.000000 1.000000
vn 0.000000 0.000000 1.000000
vn 0.000000 0.000000 -1.000000
vn 0.000000 0.000000 -1.000000
vn 0.000000 0.000000 -1.000000
vn 0.000000 0.000000 -1.000000
vn 1.000000 0.000000 0.000000
vn 1.000000 0.000000 0.000000
vn 1.000000 0.000000 0.000000
vn 1.000000 0.000000 0.000000
vn -1.000000 0.000000 0.000000
vn -1.000000 0.000000 0.000000
vn -1.000000 0.000000 0.000000
vn -1.000000 0.000000 0.000000
vn -0.000000 0.000000 1.000000
vn -0.000000 0.000000 1.000000
vn -0.000000 0.000000 1.000000
vn 0.000000 0.000000 1.000000
vn 0.000000 0.000000 1.000000
vn 0.000000 0.000000 1.000000
vn 0.000000 0.000000 1.000000
vn 0.000000 0.000000 1.000000
vn 0.000000 0.000000 1.000000
vn 0.000000 0.000000 1.000000
vn -0.109653 0.993970 0.000000
vn -0.110829 0.993839 -0.000377
vn -0.109759 0.993958 -0.000324
vn -0.110204 0.993909 -0.000466
vn -0.059756 0.998213 -0.000253
vn -0.059458 0.998231 -0.000252
vn -0.000000 0.000000 -1.000000
vn -0.000000 0.000000 -1.000000
vn -0.000000 0.000000 -1.000000
vn 0.000000 0.000000 -1.000000
vn 0.000000 0.000000 -1.000000
vn -0.000000 0.000000 -1.000000
vn 0.000000 0.000000 -1.000000
vn 0.000000 0.000000 -1.000000
vn 0.000000 0.000000 -1.000000
vn 0.000000 0.000000 -1.000000
vn -0.104389 -0.994536 -0.000442
vn -0.105130 -0.994459 -0.000073
vn -0.268124 -0.963384 -0.000950
vn -0.271631 -0.962402 0.000000
vn 0.848469 -0.529246 0.000000
vn 0.848469 -0.529245 0.000000
vn 0.848469 -0.529245 0.000000
vn 0.848469 -0.529244 0.000000
vn -1.000000 0.000000 0.000000
vn -1.000000 0.000000 0.000000
vn -1.000000 0.000000 0.000000
vn -1.000000 0.000000 0.000000
vn 0.181280 0.983431 0.000767
vn 0.241857 0.970312 0.000441
vn 0.181954 0.983307 0.000440
vn 0.242200 0.970226 0.000000
vn 0.000000 -1.000000 0.000000
vn 0.000000 -1.000000 0.000000
vn 0.000000 -1.000000 0.000000
vn 0.000000 -1.000000 0.000000
vn 0.000000 -1.000000 0.000000
vn 0.000000 -1.000000 0.000000
vn 0.000000 0.000000 1.000000
vn -0.000000 0.000000 1.000000
vn -0.000000 0.000000 1.000000
vn -0.000000 0.000000 1.000000
vn 0.165551 0.986201 0.000000
vn 0.165551 0.986201 0.000000
vn 0.165551 0.986201 0.000000
vn 0.165551 0.986201 0.000000
vn -0.000000 0.000000 -1.000000
vn -0.000000 0.000000 -1.000000
vn -0.000000 0.000000 -1.000000
vn 0.000000 0.000000 -1.000000
vn 0.000000 -1.000000 0.000000
vn 0.000000 -1.000000 0.000000
vn 0.000000 -1.000000 0.000000
vn 0.000000 -1.000000 0.000000
vn 1.000000 0.000000 0.000000
vn 1.000000 0.000000 0.000000
vn 1.000000 0.000000 0.000000
vn 1.000000 0.000000 0.000000
vn -1.000000 0.000000 0.000000
vn -1.000000 0.000000 0.000000
vn -1.000000 0.000000 0.000000
vn -1.000000 0.000000 0.000000
vn -0.923880 -0.382684 0.000000
vn -0.923879 -0.382684 0.000000
vn -0.923879 -0.382684 0.000000
vn -0.923879 -0.382684 0.000000
vn -0.923879 0.382684 0.000000
vn -0.923879 0.382684 0.000000
vn -0.923879 0.382684 0.000000
vn -0.923880 0.382683 0.000000
vn -0.382684 0.923880 0.000000
vn -0.382684 0.923880 0.000000
vn -0.382684 0.923880 0.000000
vn -0.382684 0.923879 0.000000
vn 0.382683 0.923880 0.000000
vn 0.382683 0.923880 0.000000
vn 0.382683 0.923880 0.000000
vn 0.382683 0.923880 0.000000
vn 0.923880 0.382683 0.000000
vn 0.923880 0.382683 0.000000
vn 0.923880 0.382683 0.000000
vn 0.923880 0.382683 0.000000
vn 0.923880 -0.382684 0.000000
vn 0.923880 -0.382683 0.000000
vn 0.923880 -0.382683 0.000000
vn 0.923880 -0.382683 0.000000
vn 0.382683 -0.923880 0.000000
vn 0.382683 -0.923880 0.000000
vn 0.382683 -0.923880 0.000000
vn 0.382683 -0.923880 0.000000
vn -0.382684 -0.923879 0.000000
vn -0.382684 -0.923879 0.000000
vn -0.382684 -0.923879 0.000000
vn -0.382684 -0.923879 0.000000
vn -0.000000 0.000000 1.000000
vn 0.000001 0.000000 1.000000
vn -0.000000 0.000000 1.000000
vn -0.000001 0.000000 1.000000
vn -0.000000 0.000000 1.000000
vn 0.000001 0.000000 1.000000
vn -0.000001 0.000000 1.000000
vn 0.000000 0.000000 1.000000
vn 0.000000 0.000000 -1.000000
vn -0.000000 0.000000 -1.000000
vn 0.000000 0.000000 -1.000000
vn -0.000000 0.000000 -1.000000
vn 0.000000 0.000000 -1.000000
vn 0.000000 0.000000 -1.000000
vn -0.000000 0.000000 -1.000000
vn 0.000001 0.000000 -1.000000
vn -0.923880 -0.382683 0.000000
vn -0.923880 -0.382683 0.000000
vn -0.923880 -0.382683 0.000000
vn -0.923880 -0.382683 0.000000
vn -0.923880 0.382683 0.000000
vn -0.923880 0.382683 0.000000
vn -0.923880 0.382683 0.000000
vn -0.923880 0.382683 0.000000
vn -0.382683 0.923880 0.000000
vn -0.382684 0.923880 0.000000
vn -0.382684 0.923880 0.000000
vn -0.382684 0.923879 0.000000
vn 0.382683 0.923880 0.000000
vn 0.382683 0.923880 0.000000
vn 0.382683 0.923880 0.000000
vn 0.382683 0.923880 0.000000
vn 0.923880 0.382683 0.000000
vn 0.923880 0.382683 0.000000
vn 0.923880 0.382683 0.000000
vn 0.923880 0.382683 0.000000
vn 0.923880 -0.382683 0.000000
vn 0.923880 -0.382683 0.000000
vn 0.923880 -0.382683 0.000000
vn 0.923880 -0.382683 0.000000
vn 0.382683 -0.923880 0.000000
vn 0.382683 -0.923880 0.000000
vn 0.382683 -0.923880 0.000000
vn 0.382683 -0.923880 0.000000
vn -0.382684 -0.923879 0.000000
vn -0.382684 -0.923880 0.000000
vn -0.382684 -0.923880 0.000000
vn -0.382684 -0.923880 0.000000
vn -0.000000 0.000000 1.000000
vn -0.000000 0.000000 1.000000
vn -0.000000 0.000000 1.000000
vn 0.000000 0.000000 1.000000
vn -0.000000 0.000000 1.000000
vn -0.000000 0.000000 1.000000
vn 0.000000 0.000000 1.000000
vn 0.000000 0.000000 1.000000
vn 0.000000 0.000000 -1.000000
vn -0.000000 0.000000 -1.000000
vn -0.000000 0.000000 -1.000000
vn 0.000000 0.000000 -1.000000
vn -0.000000 0.000000 -1.000000
vn -0.000000 0.000000 -1.000000
vn 0.000001 0.000000 -1.000000
vn -0.000002 0.000000 -1.000000
vn -0.923880 -0.382683 0.000000
vn -0.923880 -0.382683 0.000000
vn -0.923880 -0.382683 0.000000
vn -0.923880 -0.382683 0.000000
vn -0.923880 0.382683 0.000000
vn -0.923880 0.382683 0.000000
vn -0.923880 0.382683 0.000000
vn -0.923880 0.382683 0.000000
vn -0.382683 0.923880 0.000000
vn -0.382683 0.923880 0.000000
vn -0.382683 0.923880 0.000000
vn -0.382683 0.923880 0.000000
vn 0.382684 0.923879 0.000000
vn 0.382684 0.923880 0.000000
vn 0.382684 0.923880 0.000000
vn 0.382683 0.923880 0.000000
vn 0.923880 0.382683 0.000000
vn 0.923880 0.382683 0.000000
vn 0.923880 0.382683 0.000000
vn 0.923880 0.382683 0.000000
vn 0.923880 -0.382683 0.000000
vn 0.923880 -0.382683 0.000000
vn 0.923880 -0.382683 0.000000
vn 0.923880 -0.382683 0.000000
vn 0.382683 -0.923880 0.000000
vn 0.382684 -0.923880 0.000000
vn 0.382684 -0.923880 0.000000
vn 0.382684 -0.923879 0.000000
vn -0.382683 -0.923880 0.000000
vn -0.382684 -0.923880 0.000000
vn -0.382683 -0.923880 0.000000
vn -0.382684 -0.923880 0.000000
vn -0.000000 0.000000 1.000000
vn -0.000000 0.000000 1.000000
vn -0.000000 0.000000 1.000000
vn 0.000000 0.000000 1.000000
vn -0.000000 0.000000 1.000000
vn -0.000000 0.000000 1.000000
vn 0.000000 0.000000 1.000000
vn 0.000000 0.000000 1.000000
vn 0.000000 0.000000 -1.000000
vn -0.000000 0.000000 -1.000000
vn -0.000000 0.000000 -1.000000
vn 0.000000 0.000000 -1.000000
vn -0.000000 0.000000 -1.000000
vn -0.000000 0.000000 -1.000000
vn 0.000001 0.000000 -1.000000
vn -0.000002 0.000000 -1.000000
vn -0.923880 -0.382683 0.000000
vn -0.923880 -0.382683 0.000000
vn -0.923880 -0.382683 0.000000
vn -0.923880 -0.382683 0.000000
vn -0.923880 0.382683 0.000000
vn -0.923880 0.382683 0.000000
vn -0.923880 0.382683 0.000000
vn -0.923880 0.382683 0.000000
vn -0.382683 0.923880 0.000000
vn -0.382683 0.923880 0.000000
vn -0.382683 0.923880 0.000000
vn -0.382683 0.923880 0.000000
vn 0.382684 0.923879 0.000000
vn 0.382684 0.923880 0.000000
vn 0.382684 0.923880 0.000000
vn 0.382683 0.923880 0.000000
vn 0.923880 0.382684 0.000000
vn 0.923880 0.382683 0.000000
vn 0.923880 0.382683 0.000000
vn 0.923880 0.382683 0.000000
vn 0.923880 -0.382684 0.000000
vn 0.923880 -0.382683 0.000000
vn 0.923880 -0.382683 0.000000
vn 0.923880 -0.382683 0.000000
vn 0.382683 -0.923880 0.000000
vn 0.382684 -0.923880 0.000000
vn 0.382684 -0.923880 0.000000
vn 0.382684 -0.923879 0.000000
vn -0.382683 -0.923880 0.000000
vn -0.382683 -0.923880 0.000000
vn -0.382683 -0.923880 0.000000
vn -0.382683 -0.923880 0.000000
vn -0.000000 0.000000 1.000000
vn 0.000001 0.000000 1.000000
vn -0.000000 0.000000 1.000000
vn -0.000001 0.000000 1.000000
vn 0.000000 0.000000 1.000000
vn 0.000001 0.000000 1.000000
vn -0.000001 0.000000 1.000000
vn 0.000000 0.000000 1.000000
vn 0.000000 0.000000 -1.000000
vn -0.000000 0.000000 -1.000000
vn 0.000000 0.000000 -1.000000
vn -0.000000 0.000000 -1.000000
vn 0.000000 0.000000 -1.000000
vn 0.000000 0.000000 -1.000000
vn -0.000000 0.000000 -1.000000
vn 0.000001 0.000000 -1.000000
f 1/3/1 2/9/2 3/8/3
f 3/8/3 2/9/2 4/10/4
f 5/5/5 6/6/6 7/1/7
f 7/1/7 6/6/6 8/4/8
f 2/2/9 8/4/10 4/7/11
f 4/7/11 8/4/10 6/6/12
f 7/1/13 1/3/14 5/5/15
f 5/5/15 1/3/14 3/8/16
f 9/11/17 10/12/18 11/14/19
f 11/14/19 10/12/18 12/13/20
f 13/15/21 14/16/22 15/18/23
f 15/18/23 14/16/22 16/17/24
f 10/12/25 16/19/26 12/13/27
f 12/13/27 16/19/26 14/20/28
f 15/18/29 9/11/30 13/15/31
f 13/15/31 9/11/30 11/14/32
f 20/28/33 28/29/34 18/27/35
f 18/27/35 28/29/34 27/26/36
f 27/26/36 28/29/34 31/25/37
f 28/29/34 32/30/38 31/25/37
f 32/30/38 35/21/39 31/25/37
f 31/25/37 35/21/39 34/24/40
f 35/21/39 19/22/41 34/24/40
f 19/22/41 17/23/42 34/24/40
f 21/32/43 19/33/44 36/31/45
f 19/33/44 35/34/46 36/31/45
f 35/34/46 32/30/47 36/31/45
f 36/31/45 32/30/47 29/35/48
f 22/42/49 24/43/50 25/41/51
f 24/43/50 26/44/52 25/41/51
f 26/44/52 30/45/53 25/41/51
f 25/41/51 30/45/53 29/40/54
f 29/40/54 30/45/53 36/39/55
f 30/45/53 33/36/56 36/39/55
f 36/39/55 33/36/56 21/38/57
f 33/36/56 23/37/58 21/38/57
f 33/36/59 34/47/60 23/46/61
f 23/46/61 34/47/60 17/48/62
f 18/27/63 24/49/64 20/51/65
f 20/51/65 24/49/64 22/50/66
f 23/46/67 17/48/68 21/53/69
f 21/53/69 17/48/68 19/52/70
f 28/29/71 20/55/72 25/54/73
f 25/54/73 20/55/72 22/56/74
f 32/30/47 28/29/71 29/35/48
f 29/35/48 28/29/71 25/54/73
f 34/47/60 33/36/59 31/57/75
f 33/36/59 30/45/76 31/57/75
f 31/57/75 30/45/76 27/26/77
f 30/45/76 26/58/78 27/26/77
f 24/49/79 18/27/80 26/58/78
f 26/58/78 18/27/80 27/26/77
f 38/60/81 40/61/82 37/59/83
f 37/59/83 40/61/82 39/62/84
f 39/62/85 40/61/86 41/64/87
f 41/64/87 40/61/86 42/63/88
f 41/64/89 42/63/90 43/66/91
f 43/66/91 42/63/90 44/65/92
f 43/67/93 44/68/94 37/70/95
f 37/70/95 44/68/94 38/69/96
f 38/69/97 44/68/98 40/61/99
f 40/61/99 44/68/98 42/63/100
f 43/71/101 37/72/102 41/64/103
f 41/64/103 37/72/102 39/62/104
f 45/73/105 46/74/106 53/76/107
f 53/76/107 46/74/106 54/75/108
f 46/74/109 47/77/110 54/79/111
f 54/79/111 47/77/110 55/78/112
f 47/77/113 48/80/114 55/82/115
f 55/82/115 48/80/114 56/81/116
f 48/80/117 49/83/118 56/85/119
f 56/85/119 49/83/118 57/84/120
f 49/83/121 50/86/122 57/88/123
f 57/88/123 50/86/122 58/87/124
f 50/86/125 51/89/126 58/91/127
f 58/91/127 51/89/126 59/90/128
f 51/89/129 52/92/130 59/94/131
f 59/94/131 52/92/130 60/93/132
f 52/92/133 45/73/134 60/96/135
f 60/96/135 45/73/134 53/95/136
f 51/89/137 50/86/138 52/92/139
f 50/86/138 49/83/140 52/92/139
f 49/83/140 48/80/141 52/92/139
f 48/80/141 47/77/142 52/92/139
f 47/77/142 46/74/143 52/92/139
f 46/74/143 45/73/144 52/92/139
f 60/93/145 53/97/146 59/94/147
f 53/97/146 54/98/148 59/94/147
f 54/98/148 55/99/149 59/94/147
f 55/99/149 56/100/150 59/94/147
f 56/100/150 57/101/151 59/94/147
f 57/101/151 58/102/152 59/94/147
f 61/103/153 62/104/154 69/106/155
f 69/106/155 62/104/154 70/105/156
f 62/107/157 63/108/158 70/105/159
f 70/105/159 63/108/158 71/109/160
f 63/110/161 64/111/162 71/109/163
f 71/109/163 64/111/162 72/112/164
f 64/113/165 65/114/166 72/112/167
f 72/112/167 65/114/166 73/115/168
f 65/116/169 66/117/170 73/115/171
f 73/115/171 66/117/170 74/118/172
f 66/119/173 67/120/174 74/118/175
f 74/118/175 67/120/174 75/121/176
f 67/122/177 68/123/178 75/121/179
f 75/121/179 68/123/178 76/124/180
f 68/125/181 61/126/182 76/124/183
f 76/124/183 61/126/182 69/106/184
f 67/122/185 66/127/186 68/123/187
f 66/127/186 65/128/188 68/123/187
f 65/128/188 64/129/189 68/123/187
f 64/129/189 63/130/190 68/123/187
f 63/130/190 62/131/191 68/123/187
f 62/131/191 61/132/192 68/123/187
f 76/124/193 69/106/194 75/121/195
f 69/106/194 70/105/196 75/121/195
f 70/105/196 71/109/197 75/121/195
f 71/109/197 72/112/198 75/121/195
f 72/112/198 73/115/199 75/121/195
f 73/115/199 74/118/200 75/121/195
f 77/133/201 78/134/202 85/136/203
f 85/136/203 78/134/202 86/135/204
f 78/137/205 79/138/206 86/135/207
f 86/135/207 79/138/206 87/139/208
f 79/140/209 80/141/210 87/139/211
f 87/139/211 80/141/210 88/142/212
f 80/143/213 81/144/214 88/142/215
f 88/142/215 81/144/214 89/145/216
f 81/146/217 82/147/218 89/145/219
f 89/145/219 82/147/218 90/148/220
f 82/149/221 83/150/222 90/148/223
f 90/148/223 83/150/222 91/151/224
f 83/152/225 84/153/226 91/151/227
f 91/151/227 84/153/226 92/154/228
f 84/155/229 77/156/230 92/154/231
f 92/154/231 77/156/230 85/136/232
f 83/157/233 82/158/234 84/162/235
f 82/158/234 81/159/236 84/162/235
f 81/159/236 80/141/237 84/162/235
f 80/141/237 79/140/238 84/162/235
f 79/140/238 78/160/239 84/162/235
f 78/160/239 77/161/240 84/162/235
f 92/154/241 85/136/242 91/151/243
f 85/136/242 86/135/244 91/151/243
f 86/135/244 87/139/245 91/151/243
f 87/139/245 88/142/246 91/151/243
f 88/142/246 89/145/247 91/151/243
f 89/145/247 90/148/248 91/151/243
f 93/163/249 94/164/250 101/166/251
f 101/166/251 94/164/250 102/165/252
f 94/164/253 95/167/254 102/169/255
f 102/169/255 95/167/254 103/168/256
f 95/167/257 96/170/258 103/172/259
f 103/172/259 96/170/258 104/171/260
f 96/170/261 97/173/262 104/175/263
f 104/175/263 97/173/262 105/174/264
f 97/173/265 98/176/266 105/178/267
f 105/178/267 98/176/266 106/177/268
f 98/176/269 99/179/270 106/181/271
f 106/181/271 99/179/270 107/180/272
f 99/179/273 100/182/274 107/184/275
f 107/184/275 100/182/274 108/183/276
f 100/182/277 93/163/278 108/186/279
f 108/186/279 93/163/278 101/185/280
f 99/179/281 98/176/282 100/182/283
f 98/176/282 97/173/284 100/182/283
f 97/173/284 96/170/285 100/182/283
f 96/170/285 95/167/286 100/182/283
f 95/167/286 94/164/287 100/182/283
f 94/164/287 93/163/288 100/182/283
f 108/183/289 101/187/290 107/184/291
f 101/187/290 102/188/292 107/184/291
f 102/188/292 103/189/293 107/184/291
f 103/189/293 104/190/294 107/184/291
f 104/190/294 105/191/295 107/184/291
f 105/191/295 106/192/296 107/184/291