# This file uses centimeters as units for non-parametric coordinates.

v 55.000000 -0.000000 55.000000
v 55.000000 -0.000000 -55.000000
v -55.000000 0.000000 55.000000
v -55.000000 0.000000 -55.000000
vt 0.000000 1.000000
vt 0.000000 -0.000000
vt 1.000000 1.000000
vt 1.000000 0.000000
vn 0.000000 1.000000 0.000000
vn 0.000000 1.000000 0.000000
vn 0.000000 1.000000 0.000000
vn 0.000000 1.000000 0.000000
f 1/1/1 2/2/2 3/3/3
f 3/3/3 2/2/2 4/4/4
v 55.000000 -0.000000 55.000000
v 55.000000 -0.000000 -55.000000
v -55.000000 0.000000 55.000000
v -55.000000 0.000000 -55.000000
vt 0.000000 1.000000
vt 0.000000 -0.000000
vt 1.000000 1.000000
vt 1.000000 0.000000
vn 0.000000 1.000000 0.000000
vn 0.000000 1.000000 0.000000
vn 0.000000 1.000000 0.000000
vn 0.000000 1.000000 0.000000
f 5/5/5 6/6/6 7/7/7
f 7/7/7 6/6/6 8/8/8
v 55.000000 -0.000000 55.000000
v 55.000000 -0.000000 -55.000000
v -55.000000 0.000000 55.000000
v -55.000000 0.000000 -55.000000
vt 0.000000 1.000000
vt 0.000000 -0.000000
vt 1.000000 1.000000
vt 1.000000 0.000000
vn 0.000000 1.000000 0.000000
vn 0.000000 1.000000 0.000000
vn 0.000000 1.000000 0.000000
vn 0.000000 1.000000 0.000000
f 9/9/9 10/10/10 11/11/11
f 11/11/11 10/10/10 12/12/12
