# This file uses centimeters as units for non-parametric coordinates.

v -54.999997 -0.000000 54.999997
v 54.999997 -0.000000 54.999997
v -54.999997 0.000000 -54.999997
v 54.999997 0.000000 -54.999997
vt 0.995891 0.004109
vt 0.995890 0.995891
vt 0.004109 0.995891
vt 0.004110 0.004109
vn 0.000000 1.000000 0.000000
vn 0.000000 1.000000 0.000000
vn 0.000000 1.000000 0.000000
vn 0.000000 1.000000 0.000000
f 1/1/1 2/2/2 3/4/3
f 3/4/3 2/2/2 4/3/4
v -54.999997 -0.000000 54.999997
v 54.999997 -0.000000 54.999997
v -54.999997 0.000000 -54.999997
v 54.999997 0.000000 -54.999997
vt 0.995891 0.004109
vt 0.995890 0.995891
vt 0.004109 0.995891
vt 0.004110 0.004109
vn 0.000000 1.000000 0.000000
vn 0.000000 1.000000 0.000000
vn 0.000000 1.000000 0.000000
vn 0.000000 1.000000 0.000000
f 5/5/5 6/6/6 7/8/7
f 7/8/7 6/6/6 8/7/8
